<svg width="100" height="67" viewBox="0 0 100 67" fill="none" xmlns="http://www.w3.org/2000/svg">
<path fill-rule="evenodd" clip-rule="evenodd" d="M49.8203 1.34912C50.3331 1.34912 50.7558 1.73516 50.8136 2.2325L50.8203 2.34912V11.3491H59.8203C60.3726 11.3491 60.8203 11.7968 60.8203 12.3491C60.8203 12.862 60.4343 13.2846 59.9369 13.3424L59.8203 13.3491H50.8203V22.3491C50.8203 22.9014 50.3726 23.3491 49.8203 23.3491C49.3075 23.3491 48.8848 22.9631 48.827 22.4657L48.8203 22.3491V13.3491H39.8203C39.268 13.3491 38.8203 12.9014 38.8203 12.3491C38.8203 11.8363 39.2064 11.4136 39.7037 11.3558L39.8203 11.3491H48.8203V2.34912C48.8203 1.79684 49.268 1.34912 49.8203 1.34912Z" fill="#272727"/>
<path fill-rule="evenodd" clip-rule="evenodd" d="M49.8203 1.34912C50.3331 1.34912 50.7558 1.73516 50.8136 2.2325L50.8203 2.34912V11.3491H59.8203C60.3726 11.3491 60.8203 11.7968 60.8203 12.3491C60.8203 12.862 60.4343 13.2846 59.9369 13.3424L59.8203 13.3491H50.8203V22.3491C50.8203 22.9014 50.3726 23.3491 49.8203 23.3491C49.3075 23.3491 48.8848 22.9631 48.827 22.4657L48.8203 22.3491V13.3491H39.8203C39.268 13.3491 38.8203 12.9014 38.8203 12.3491C38.8203 11.8363 39.2064 11.4136 39.7037 11.3558L39.8203 11.3491H48.8203V2.34912C48.8203 1.79684 49.268 1.34912 49.8203 1.34912Z" fill="#481380"/>
<path fill-rule="evenodd" clip-rule="evenodd" d="M49.8203 1.34912C50.3331 1.34912 50.7558 1.73516 50.8136 2.2325L50.8203 2.34912V11.3491H59.8203C60.3726 11.3491 60.8203 11.7968 60.8203 12.3491C60.8203 12.862 60.4343 13.2846 59.9369 13.3424L59.8203 13.3491H50.8203V22.3491C50.8203 22.9014 50.3726 23.3491 49.8203 23.3491C49.3075 23.3491 48.8848 22.9631 48.827 22.4657L48.8203 22.3491V13.3491H39.8203C39.268 13.3491 38.8203 12.9014 38.8203 12.3491C38.8203 11.8363 39.2064 11.4136 39.7037 11.3558L39.8203 11.3491H48.8203V2.34912C48.8203 1.79684 49.268 1.34912 49.8203 1.34912Z" fill="url(#paint0_linear)"/>
<path d="M19.3999 46.6032V43.7627C19.7205 43.7627 19.9849 43.6825 20.1929 43.5222C20.4009 43.3575 20.5655 43.1344 20.6869 42.8527C20.8125 42.5667 20.9079 42.2417 20.9729 41.8777C21.0422 41.5137 21.0942 41.1302 21.1289 40.7272C21.1809 40.1812 21.2242 39.6482 21.2589 39.1282C21.2979 38.6039 21.3325 38.0622 21.3629 37.5032C21.3975 36.9442 21.4344 36.3354 21.4734 35.6767L27.4664 35.6832V43.7627H28.1619V46.6032H26.7969V45.0432H20.7584V46.6032H19.3999ZM21.6294 43.7627H26.1079V36.9637L22.7279 36.9572C22.6975 37.4339 22.6715 37.8867 22.6499 38.3157C22.6282 38.7447 22.6 39.178 22.5654 39.6157C22.535 40.049 22.496 40.5149 22.4484 41.0132C22.4007 41.4899 22.3509 41.895 22.2989 42.2287C22.2469 42.558 22.1689 42.844 22.0649 43.0867C21.9652 43.3294 21.82 43.5547 21.6294 43.7627ZM32.6348 45.2382C31.9328 45.2382 31.3239 45.08 30.8083 44.7637C30.2926 44.4474 29.8939 44.0119 29.6123 43.4572C29.3349 42.8982 29.1963 42.2547 29.1963 41.5267C29.1963 40.7944 29.3393 40.1509 29.6253 39.5962C29.9113 39.0372 30.3121 38.6039 30.8278 38.2962C31.3434 37.9842 31.9458 37.8282 32.6348 37.8282C33.3368 37.8282 33.9456 37.9864 34.4613 38.3027C34.9769 38.619 35.3756 39.0545 35.6573 39.6092C35.9389 40.1639 36.0798 40.803 36.0798 41.5267C36.0798 42.259 35.9368 42.9047 35.6508 43.4637C35.3691 44.0184 34.9704 44.4539 34.4548 44.7702C33.9391 45.0822 33.3324 45.2382 32.6348 45.2382ZM32.6348 43.9577C33.3064 43.9577 33.8069 43.7324 34.1363 43.2817C34.4699 42.8267 34.6368 42.2417 34.6368 41.5267C34.6368 40.7944 34.4678 40.2094 34.1298 39.7717C33.7961 39.3297 33.2978 39.1087 32.6348 39.1087C32.1798 39.1087 31.8049 39.2127 31.5103 39.4207C31.2156 39.6244 30.9968 39.9082 30.8538 40.2722C30.7108 40.6319 30.6393 41.05 30.6393 41.5267C30.6393 42.2634 30.8083 42.8527 31.1463 43.2947C31.4843 43.7367 31.9804 43.9577 32.6348 43.9577ZM40.3941 45.2447C39.7268 45.2404 39.1591 45.0952 38.6911 44.8092C38.2231 44.5232 37.857 44.1115 37.5926 43.5742C37.3326 43.0325 37.181 42.3804 37.1376 41.6177C37.116 41.2494 37.1181 40.842 37.1441 40.3957C37.1701 39.945 37.2178 39.5095 37.2871 39.0892C37.3608 38.6689 37.454 38.3179 37.5666 38.0362C37.6923 37.7242 37.8635 37.4382 38.0801 37.1782C38.2968 36.9139 38.5351 36.6929 38.7951 36.5152C39.0725 36.3245 39.3801 36.1772 39.7181 36.0732C40.0561 35.9649 40.4093 35.8804 40.7776 35.8197C41.1503 35.759 41.5251 35.707 41.9021 35.6637C42.2835 35.616 42.654 35.5575 43.0136 35.4882L43.1436 36.7037C42.9053 36.76 42.6236 36.8055 42.2986 36.8402C41.978 36.8749 41.6443 36.9139 41.2976 36.9572C40.9553 37.0005 40.6281 37.0612 40.3161 37.1392C40.0041 37.2172 39.7333 37.3277 39.5036 37.4707C39.1786 37.67 38.9295 37.9604 38.7561 38.3417C38.5871 38.723 38.4853 39.1369 38.4506 39.5832C38.7193 39.1759 39.0616 38.8834 39.4776 38.7057C39.8936 38.5237 40.3248 38.4327 40.7711 38.4327C41.3951 38.4327 41.9325 38.58 42.3831 38.8747C42.8381 39.1694 43.187 39.5702 43.4296 40.0772C43.6723 40.5842 43.7936 41.1584 43.7936 41.7997C43.7936 42.493 43.6506 43.0997 43.3646 43.6197C43.083 44.1354 42.6865 44.5384 42.1751 44.8287C41.6638 45.1147 41.0701 45.2534 40.3941 45.2447ZM40.4656 43.9642C41.0896 43.9642 41.5598 43.7714 41.8761 43.3857C42.1968 43 42.3571 42.4865 42.3571 41.8452C42.3571 41.1865 42.1925 40.6687 41.8631 40.2917C41.5338 39.9147 41.068 39.7262 40.4656 39.7262C39.8546 39.7262 39.3866 39.9147 39.0616 40.2917C38.741 40.6687 38.5806 41.1865 38.5806 41.8452C38.5806 42.5125 38.7431 43.0325 39.0681 43.4052C39.3931 43.7779 39.859 43.9642 40.4656 43.9642ZM47.2094 45.2382C46.6894 45.2382 46.2539 45.1429 45.9029 44.9522C45.5519 44.7572 45.2854 44.5015 45.1034 44.1852C44.9257 43.8645 44.8369 43.5135 44.8369 43.1322C44.8369 42.7769 44.8997 42.4649 45.0254 42.1962C45.1511 41.9275 45.3374 41.7 45.5844 41.5137C45.8314 41.323 46.1347 41.1692 46.4944 41.0522C46.8064 40.9612 47.1596 40.881 47.5539 40.8117C47.9482 40.7424 48.3621 40.6774 48.7954 40.6167C49.2331 40.556 49.6664 40.4954 50.0954 40.4347L49.6014 40.7077C49.6101 40.1574 49.4931 39.75 49.2504 39.4857C49.0121 39.217 48.6004 39.0827 48.0154 39.0827C47.6471 39.0827 47.3091 39.1694 47.0014 39.3427C46.6937 39.5117 46.4792 39.7934 46.3579 40.1877L45.0904 39.7977C45.2637 39.1954 45.5931 38.7165 46.0784 38.3612C46.5681 38.0059 47.2181 37.8282 48.0284 37.8282C48.6567 37.8282 49.2027 37.9365 49.6664 38.1532C50.1344 38.3655 50.4767 38.7035 50.6934 39.1672C50.8061 39.3969 50.8754 39.6395 50.9014 39.8952C50.9274 40.1509 50.9404 40.426 50.9404 40.7207V45.0432H49.7379V43.4377L49.9719 43.6457C49.6816 44.183 49.3111 44.5839 48.8604 44.8482C48.4141 45.1082 47.8637 45.2382 47.2094 45.2382ZM47.4499 44.1267C47.8356 44.1267 48.1671 44.0595 48.4444 43.9252C48.7217 43.7865 48.9449 43.611 49.1139 43.3987C49.2829 43.1864 49.3934 42.9654 49.4454 42.7357C49.5191 42.5277 49.5602 42.2937 49.5689 42.0337C49.5819 41.7737 49.5884 41.5657 49.5884 41.4097L50.0304 41.5722C49.6014 41.6372 49.2114 41.6957 48.8604 41.7477C48.5094 41.7997 48.1909 41.8517 47.9049 41.9037C47.6232 41.9514 47.3719 42.0099 47.1509 42.0792C46.9646 42.1442 46.7977 42.2222 46.6504 42.3132C46.5074 42.4042 46.3926 42.5147 46.3059 42.6447C46.2236 42.7747 46.1824 42.9329 46.1824 43.1192C46.1824 43.3012 46.2279 43.4702 46.3189 43.6262C46.4099 43.7779 46.5486 43.8992 46.7349 43.9902C46.9212 44.0812 47.1596 44.1267 47.4499 44.1267ZM52.6218 45.0432V38.0232H55.7093C55.9129 38.0232 56.1166 38.0362 56.3203 38.0622C56.5239 38.0839 56.7038 38.1164 56.8598 38.1597C57.2151 38.2594 57.5184 38.4587 57.7698 38.7577C58.0211 39.0524 58.1468 39.4467 58.1468 39.9407C58.1468 40.2224 58.1034 40.4607 58.0168 40.6557C57.9301 40.8464 57.8109 41.011 57.6593 41.1497C57.5899 41.2104 57.5163 41.2645 57.4383 41.3122C57.3603 41.3599 57.2823 41.3967 57.2043 41.4227C57.3646 41.4487 57.5228 41.505 57.6788 41.5917C57.9171 41.7174 58.1121 41.8994 58.2638 42.1377C58.4198 42.3717 58.4978 42.6859 58.4978 43.0802C58.4978 43.5525 58.3829 43.949 58.1533 44.2697C57.9236 44.586 57.5986 44.8027 57.1783 44.9197C57.0136 44.9674 56.8273 44.9999 56.6193 45.0172C56.4156 45.0345 56.2119 45.0432 56.0083 45.0432H52.6218ZM53.9998 43.9707H55.9238C56.0148 43.9707 56.1188 43.962 56.2358 43.9447C56.3528 43.9274 56.4568 43.9035 56.5478 43.8732C56.7428 43.8125 56.8814 43.702 56.9638 43.5417C57.0504 43.3814 57.0938 43.2102 57.0938 43.0282C57.0938 42.7812 57.0288 42.584 56.8988 42.4367C56.7688 42.285 56.6041 42.1875 56.4048 42.1442C56.3181 42.1139 56.2228 42.0965 56.1188 42.0922C56.0148 42.0879 55.9259 42.0857 55.8523 42.0857H53.9998V43.9707ZM53.9998 40.9937H55.5208C55.6464 40.9937 55.7743 40.9872 55.9043 40.9742C56.0343 40.9569 56.1469 40.9287 56.2423 40.8897C56.4113 40.8247 56.5369 40.7164 56.6193 40.5647C56.7016 40.4087 56.7428 40.2397 56.7428 40.0577C56.7428 39.8584 56.6973 39.6807 56.6063 39.5247C56.5153 39.3687 56.3788 39.2604 56.1968 39.1997C56.0711 39.1564 55.9259 39.1325 55.7613 39.1282C55.6009 39.1195 55.4991 39.1152 55.4558 39.1152H53.9998V40.9937ZM65.7161 38.0232V45.0432H64.4096V40.1617L60.8996 45.0432H59.7946V38.0232H61.1011V42.8072L64.6176 38.0232H65.7161ZM69.3461 45.0432V39.2452H66.9476V38.0232H73.1031V39.2452H70.7046V45.0432H69.3461ZM74.3307 45.0432V38.0232H75.6957V40.4607H77.0802C77.2796 40.4607 77.4919 40.465 77.7172 40.4737C77.9469 40.4824 78.1441 40.504 78.3087 40.5387C78.6857 40.6167 79.0107 40.7467 79.2837 40.9287C79.5611 41.1107 79.7756 41.3534 79.9272 41.6567C80.0789 41.9557 80.1547 42.324 80.1547 42.7617C80.1547 43.3727 79.9944 43.8602 79.6737 44.2242C79.3574 44.5839 78.9284 44.8265 78.3867 44.9522C78.2134 44.9912 78.0076 45.0172 77.7692 45.0302C77.5352 45.0389 77.3207 45.0432 77.1257 45.0432H74.3307ZM75.6957 43.9512H77.2037C77.3121 43.9512 77.4356 43.9469 77.5742 43.9382C77.7129 43.9295 77.8407 43.91 77.9577 43.8797C78.1657 43.819 78.3521 43.6955 78.5167 43.5092C78.6814 43.3229 78.7637 43.0737 78.7637 42.7617C78.7637 42.441 78.6814 42.1854 78.5167 41.9947C78.3564 41.804 78.1527 41.6805 77.9057 41.6242C77.7887 41.5939 77.6696 41.5744 77.5482 41.5657C77.4269 41.557 77.3121 41.5527 77.2037 41.5527H75.6957V43.9512ZM29.0478 63.2382C28.3761 63.2382 27.8128 63.0757 27.3578 62.7507C26.9028 62.4214 26.5583 61.9772 26.3243 61.4182C26.0903 60.8592 25.9733 60.2287 25.9733 59.5267C25.9733 58.8247 26.0881 58.1942 26.3178 57.6352C26.5518 57.0762 26.8941 56.6364 27.3448 56.3157C27.7998 55.9907 28.3588 55.8282 29.0218 55.8282C29.6805 55.8282 30.2481 55.9907 30.7248 56.3157C31.2058 56.6364 31.5763 57.0762 31.8363 57.6352C32.0963 58.1899 32.2263 58.8204 32.2263 59.5267C32.2263 60.2287 32.0963 60.8614 31.8363 61.4247C31.5806 61.9837 31.2145 62.4257 30.7378 62.7507C30.2655 63.0757 29.7021 63.2382 29.0478 63.2382ZM25.7458 66.1632V56.0232H26.9548V61.0737H27.1108V66.1632H25.7458ZM28.8593 62.0097C29.2926 62.0097 29.6501 61.8992 29.9318 61.6782C30.2178 61.4572 30.4301 61.1604 30.5688 60.7877C30.7118 60.4107 30.7833 59.9904 30.7833 59.5267C30.7833 59.0674 30.7118 58.6514 30.5688 58.2787C30.4301 57.906 30.2156 57.6092 29.9253 57.3882C29.635 57.1672 29.2645 57.0567 28.8138 57.0567C28.3891 57.0567 28.0381 57.1607 27.7608 57.3687C27.4878 57.5767 27.2841 57.867 27.1498 58.2397C27.0198 58.6124 26.9548 59.0414 26.9548 59.5267C26.9548 60.012 27.0198 60.441 27.1498 60.8137C27.2798 61.1864 27.4856 61.4789 27.7673 61.6912C28.049 61.9035 28.413 62.0097 28.8593 62.0097ZM36.775 63.2382C36.0773 63.2382 35.4641 63.0865 34.9355 62.7832C34.4111 62.4755 34.0016 62.0487 33.707 61.5027C33.4166 60.9524 33.2715 60.3154 33.2715 59.5917C33.2715 58.8247 33.4145 58.1595 33.7005 57.5962C33.9908 57.0329 34.3938 56.5974 34.9095 56.2897C35.4251 55.982 36.0253 55.8282 36.71 55.8282C37.425 55.8282 38.0338 55.995 38.5365 56.3287C39.0391 56.658 39.414 57.1282 39.661 57.7392C39.9123 58.3502 40.012 59.076 39.96 59.9167H38.6015V59.4227C38.5928 58.608 38.4368 58.0057 38.1335 57.6157C37.8345 57.2257 37.3773 57.0307 36.762 57.0307C36.0816 57.0307 35.5703 57.2452 35.228 57.6742C34.8856 58.1032 34.7145 58.7229 34.7145 59.5332C34.7145 60.3045 34.8856 60.9025 35.228 61.3272C35.5703 61.7475 36.0643 61.9577 36.71 61.9577C37.1346 61.9577 37.5008 61.8624 37.8085 61.6717C38.1205 61.4767 38.3631 61.1994 38.5365 60.8397L39.869 61.2622C39.596 61.8905 39.1821 62.378 38.6275 62.7247C38.0728 63.067 37.4553 63.2382 36.775 63.2382ZM34.2725 59.9167V58.8572H39.284V59.9167H34.2725ZM43.6669 63.2382C42.9866 63.2382 42.3756 63.093 41.8339 62.8027C41.2966 62.5124 40.8719 62.1115 40.5599 61.6002L41.6389 60.8917C41.8902 61.2297 42.1806 61.4919 42.5099 61.6782C42.8436 61.8645 43.2184 61.9577 43.6344 61.9577C44.0677 61.9577 44.4101 61.8602 44.6614 61.6652C44.9171 61.4659 45.0449 61.1994 45.0449 60.8657C45.0449 60.6014 44.9712 60.4064 44.8239 60.2807C44.6809 60.1507 44.4816 60.0662 44.2259 60.0272C43.9746 59.9882 43.6886 59.9687 43.3679 59.9687H42.7439V58.8767H43.3679C43.7926 58.8767 44.1414 58.8182 44.4144 58.7012C44.6917 58.5799 44.8304 58.3524 44.8304 58.0187C44.8304 57.6937 44.7112 57.4597 44.4729 57.3167C44.2389 57.1737 43.9594 57.1022 43.6344 57.1022C43.2704 57.1022 42.9172 57.1802 42.5749 57.3362C42.2326 57.4879 41.9336 57.6764 41.6779 57.9017L40.8849 56.9722C41.2576 56.6125 41.6822 56.333 42.1589 56.1337C42.6399 55.93 43.1556 55.8282 43.7059 55.8282C44.1566 55.8282 44.5726 55.9084 44.9539 56.0687C45.3396 56.2247 45.6472 56.4565 45.8769 56.7642C46.1109 57.0719 46.2279 57.451 46.2279 57.9017C46.2279 58.2527 46.1499 58.5734 45.9939 58.8637C45.8379 59.154 45.5996 59.4184 45.2789 59.6567L45.2399 59.1952C45.5042 59.2775 45.7252 59.4097 45.9029 59.5917C46.0806 59.7737 46.2127 59.9882 46.2994 60.2352C46.3904 60.4779 46.4359 60.7357 46.4359 61.0087C46.4359 61.481 46.3102 61.884 46.0589 62.2177C45.8119 62.5514 45.4782 62.8049 45.0579 62.9782C44.6376 63.1515 44.1739 63.2382 43.6669 63.2382ZM53.7955 63.2382C53.2149 63.2382 52.697 63.1169 52.242 62.8742C51.7914 62.6315 51.423 62.2849 51.137 61.8342C50.851 61.3792 50.669 60.8397 50.591 60.2157H49.2195V63.0432H47.861V56.0232H49.2195V58.8507H50.5845C50.6625 58.2137 50.8467 57.6699 51.137 57.2192C51.4274 56.7685 51.8 56.424 52.255 56.1857C52.7144 55.9474 53.2344 55.8282 53.815 55.8282C54.5127 55.8282 55.1172 55.9864 55.6285 56.3027C56.1399 56.619 56.5364 57.0567 56.818 57.6157C57.0997 58.1704 57.2405 58.8052 57.2405 59.5202C57.2405 60.2525 57.0975 60.8982 56.8115 61.4572C56.5299 62.0162 56.1312 62.4539 55.6155 62.7702C55.0999 63.0822 54.4932 63.2382 53.7955 63.2382ZM53.776 61.9577C54.4564 61.9577 54.9634 61.7324 55.297 61.2817C55.6307 60.831 55.7975 60.246 55.7975 59.5267C55.7975 58.7857 55.6285 58.1985 55.2905 57.7652C54.9569 57.3275 54.4542 57.1087 53.7825 57.1087C53.1282 57.1087 52.6342 57.3275 52.3005 57.7652C51.9669 58.1985 51.8 58.7835 51.8 59.5202C51.8 60.2612 51.9669 60.8527 52.3005 61.2947C52.6385 61.7367 53.1304 61.9577 53.776 61.9577ZM58.6647 63.0432V56.0232H59.8022L62.3957 61.1712L64.9827 56.0232H66.1267V63.0432H64.8137V58.8052L62.7012 63.0432H62.0837L59.9712 58.8052V63.0432H58.6647ZM71.065 63.2382C70.3673 63.2382 69.7542 63.0865 69.2255 62.7832C68.7012 62.4755 68.2917 62.0487 67.997 61.5027C67.7067 60.9524 67.5615 60.3154 67.5615 59.5917C67.5615 58.8247 67.7045 58.1595 67.9905 57.5962C68.2808 57.0329 68.6838 56.5974 69.1995 56.2897C69.7152 55.982 70.3153 55.8282 71 55.8282C71.715 55.8282 72.3238 55.995 72.8265 56.3287C73.3292 56.658 73.704 57.1282 73.951 57.7392C74.2023 58.3502 74.302 59.076 74.25 59.9167H72.8915V59.4227C72.8828 58.608 72.7268 58.0057 72.4235 57.6157C72.1245 57.2257 71.6673 57.0307 71.052 57.0307C70.3717 57.0307 69.8603 57.2452 69.518 57.6742C69.1757 58.1032 69.0045 58.7229 69.0045 59.5332C69.0045 60.3045 69.1757 60.9025 69.518 61.3272C69.8603 61.7475 70.3543 61.9577 71 61.9577C71.4247 61.9577 71.7908 61.8624 72.0985 61.6717C72.4105 61.4767 72.6532 61.1994 72.8265 60.8397L74.159 61.2622C73.886 61.8905 73.4722 62.378 72.9175 62.7247C72.3628 63.067 71.7453 63.2382 71.065 63.2382ZM68.5625 59.9167V58.8572H73.574V59.9167H68.5625Z" fill="#481380"/>
<path d="M19.3999 46.6032V43.7627C19.7205 43.7627 19.9849 43.6825 20.1929 43.5222C20.4009 43.3575 20.5655 43.1344 20.6869 42.8527C20.8125 42.5667 20.9079 42.2417 20.9729 41.8777C21.0422 41.5137 21.0942 41.1302 21.1289 40.7272C21.1809 40.1812 21.2242 39.6482 21.2589 39.1282C21.2979 38.6039 21.3325 38.0622 21.3629 37.5032C21.3975 36.9442 21.4344 36.3354 21.4734 35.6767L27.4664 35.6832V43.7627H28.1619V46.6032H26.7969V45.0432H20.7584V46.6032H19.3999ZM21.6294 43.7627H26.1079V36.9637L22.7279 36.9572C22.6975 37.4339 22.6715 37.8867 22.6499 38.3157C22.6282 38.7447 22.6 39.178 22.5654 39.6157C22.535 40.049 22.496 40.5149 22.4484 41.0132C22.4007 41.4899 22.3509 41.895 22.2989 42.2287C22.2469 42.558 22.1689 42.844 22.0649 43.0867C21.9652 43.3294 21.82 43.5547 21.6294 43.7627ZM32.6348 45.2382C31.9328 45.2382 31.3239 45.08 30.8083 44.7637C30.2926 44.4474 29.8939 44.0119 29.6123 43.4572C29.3349 42.8982 29.1963 42.2547 29.1963 41.5267C29.1963 40.7944 29.3393 40.1509 29.6253 39.5962C29.9113 39.0372 30.3121 38.6039 30.8278 38.2962C31.3434 37.9842 31.9458 37.8282 32.6348 37.8282C33.3368 37.8282 33.9456 37.9864 34.4613 38.3027C34.9769 38.619 35.3756 39.0545 35.6573 39.6092C35.9389 40.1639 36.0798 40.803 36.0798 41.5267C36.0798 42.259 35.9368 42.9047 35.6508 43.4637C35.3691 44.0184 34.9704 44.4539 34.4548 44.7702C33.9391 45.0822 33.3324 45.2382 32.6348 45.2382ZM32.6348 43.9577C33.3064 43.9577 33.8069 43.7324 34.1363 43.2817C34.4699 42.8267 34.6368 42.2417 34.6368 41.5267C34.6368 40.7944 34.4678 40.2094 34.1298 39.7717C33.7961 39.3297 33.2978 39.1087 32.6348 39.1087C32.1798 39.1087 31.8049 39.2127 31.5103 39.4207C31.2156 39.6244 30.9968 39.9082 30.8538 40.2722C30.7108 40.6319 30.6393 41.05 30.6393 41.5267C30.6393 42.2634 30.8083 42.8527 31.1463 43.2947C31.4843 43.7367 31.9804 43.9577 32.6348 43.9577ZM40.3941 45.2447C39.7268 45.2404 39.1591 45.0952 38.6911 44.8092C38.2231 44.5232 37.857 44.1115 37.5926 43.5742C37.3326 43.0325 37.181 42.3804 37.1376 41.6177C37.116 41.2494 37.1181 40.842 37.1441 40.3957C37.1701 39.945 37.2178 39.5095 37.2871 39.0892C37.3608 38.6689 37.454 38.3179 37.5666 38.0362C37.6923 37.7242 37.8635 37.4382 38.0801 37.1782C38.2968 36.9139 38.5351 36.6929 38.7951 36.5152C39.0725 36.3245 39.3801 36.1772 39.7181 36.0732C40.0561 35.9649 40.4093 35.8804 40.7776 35.8197C41.1503 35.759 41.5251 35.707 41.9021 35.6637C42.2835 35.616 42.654 35.5575 43.0136 35.4882L43.1436 36.7037C42.9053 36.76 42.6236 36.8055 42.2986 36.8402C41.978 36.8749 41.6443 36.9139 41.2976 36.9572C40.9553 37.0005 40.6281 37.0612 40.3161 37.1392C40.0041 37.2172 39.7333 37.3277 39.5036 37.4707C39.1786 37.67 38.9295 37.9604 38.7561 38.3417C38.5871 38.723 38.4853 39.1369 38.4506 39.5832C38.7193 39.1759 39.0616 38.8834 39.4776 38.7057C39.8936 38.5237 40.3248 38.4327 40.7711 38.4327C41.3951 38.4327 41.9325 38.58 42.3831 38.8747C42.8381 39.1694 43.187 39.5702 43.4296 40.0772C43.6723 40.5842 43.7936 41.1584 43.7936 41.7997C43.7936 42.493 43.6506 43.0997 43.3646 43.6197C43.083 44.1354 42.6865 44.5384 42.1751 44.8287C41.6638 45.1147 41.0701 45.2534 40.3941 45.2447ZM40.4656 43.9642C41.0896 43.9642 41.5598 43.7714 41.8761 43.3857C42.1968 43 42.3571 42.4865 42.3571 41.8452C42.3571 41.1865 42.1925 40.6687 41.8631 40.2917C41.5338 39.9147 41.068 39.7262 40.4656 39.7262C39.8546 39.7262 39.3866 39.9147 39.0616 40.2917C38.741 40.6687 38.5806 41.1865 38.5806 41.8452C38.5806 42.5125 38.7431 43.0325 39.0681 43.4052C39.3931 43.7779 39.859 43.9642 40.4656 43.9642ZM47.2094 45.2382C46.6894 45.2382 46.2539 45.1429 45.9029 44.9522C45.5519 44.7572 45.2854 44.5015 45.1034 44.1852C44.9257 43.8645 44.8369 43.5135 44.8369 43.1322C44.8369 42.7769 44.8997 42.4649 45.0254 42.1962C45.1511 41.9275 45.3374 41.7 45.5844 41.5137C45.8314 41.323 46.1347 41.1692 46.4944 41.0522C46.8064 40.9612 47.1596 40.881 47.5539 40.8117C47.9482 40.7424 48.3621 40.6774 48.7954 40.6167C49.2331 40.556 49.6664 40.4954 50.0954 40.4347L49.6014 40.7077C49.6101 40.1574 49.4931 39.75 49.2504 39.4857C49.0121 39.217 48.6004 39.0827 48.0154 39.0827C47.6471 39.0827 47.3091 39.1694 47.0014 39.3427C46.6937 39.5117 46.4792 39.7934 46.3579 40.1877L45.0904 39.7977C45.2637 39.1954 45.5931 38.7165 46.0784 38.3612C46.5681 38.0059 47.2181 37.8282 48.0284 37.8282C48.6567 37.8282 49.2027 37.9365 49.6664 38.1532C50.1344 38.3655 50.4767 38.7035 50.6934 39.1672C50.8061 39.3969 50.8754 39.6395 50.9014 39.8952C50.9274 40.1509 50.9404 40.426 50.9404 40.7207V45.0432H49.7379V43.4377L49.9719 43.6457C49.6816 44.183 49.3111 44.5839 48.8604 44.8482C48.4141 45.1082 47.8637 45.2382 47.2094 45.2382ZM47.4499 44.1267C47.8356 44.1267 48.1671 44.0595 48.4444 43.9252C48.7217 43.7865 48.9449 43.611 49.1139 43.3987C49.2829 43.1864 49.3934 42.9654 49.4454 42.7357C49.5191 42.5277 49.5602 42.2937 49.5689 42.0337C49.5819 41.7737 49.5884 41.5657 49.5884 41.4097L50.0304 41.5722C49.6014 41.6372 49.2114 41.6957 48.8604 41.7477C48.5094 41.7997 48.1909 41.8517 47.9049 41.9037C47.6232 41.9514 47.3719 42.0099 47.1509 42.0792C46.9646 42.1442 46.7977 42.2222 46.6504 42.3132C46.5074 42.4042 46.3926 42.5147 46.3059 42.6447C46.2236 42.7747 46.1824 42.9329 46.1824 43.1192C46.1824 43.3012 46.2279 43.4702 46.3189 43.6262C46.4099 43.7779 46.5486 43.8992 46.7349 43.9902C46.9212 44.0812 47.1596 44.1267 47.4499 44.1267ZM52.6218 45.0432V38.0232H55.7093C55.9129 38.0232 56.1166 38.0362 56.3203 38.0622C56.5239 38.0839 56.7038 38.1164 56.8598 38.1597C57.2151 38.2594 57.5184 38.4587 57.7698 38.7577C58.0211 39.0524 58.1468 39.4467 58.1468 39.9407C58.1468 40.2224 58.1034 40.4607 58.0168 40.6557C57.9301 40.8464 57.8109 41.011 57.6593 41.1497C57.5899 41.2104 57.5163 41.2645 57.4383 41.3122C57.3603 41.3599 57.2823 41.3967 57.2043 41.4227C57.3646 41.4487 57.5228 41.505 57.6788 41.5917C57.9171 41.7174 58.1121 41.8994 58.2638 42.1377C58.4198 42.3717 58.4978 42.6859 58.4978 43.0802C58.4978 43.5525 58.3829 43.949 58.1533 44.2697C57.9236 44.586 57.5986 44.8027 57.1783 44.9197C57.0136 44.9674 56.8273 44.9999 56.6193 45.0172C56.4156 45.0345 56.2119 45.0432 56.0083 45.0432H52.6218ZM53.9998 43.9707H55.9238C56.0148 43.9707 56.1188 43.962 56.2358 43.9447C56.3528 43.9274 56.4568 43.9035 56.5478 43.8732C56.7428 43.8125 56.8814 43.702 56.9638 43.5417C57.0504 43.3814 57.0938 43.2102 57.0938 43.0282C57.0938 42.7812 57.0288 42.584 56.8988 42.4367C56.7688 42.285 56.6041 42.1875 56.4048 42.1442C56.3181 42.1139 56.2228 42.0965 56.1188 42.0922C56.0148 42.0879 55.9259 42.0857 55.8523 42.0857H53.9998V43.9707ZM53.9998 40.9937H55.5208C55.6464 40.9937 55.7743 40.9872 55.9043 40.9742C56.0343 40.9569 56.1469 40.9287 56.2423 40.8897C56.4113 40.8247 56.5369 40.7164 56.6193 40.5647C56.7016 40.4087 56.7428 40.2397 56.7428 40.0577C56.7428 39.8584 56.6973 39.6807 56.6063 39.5247C56.5153 39.3687 56.3788 39.2604 56.1968 39.1997C56.0711 39.1564 55.9259 39.1325 55.7613 39.1282C55.6009 39.1195 55.4991 39.1152 55.4558 39.1152H53.9998V40.9937ZM65.7161 38.0232V45.0432H64.4096V40.1617L60.8996 45.0432H59.7946V38.0232H61.1011V42.8072L64.6176 38.0232H65.7161ZM69.3461 45.0432V39.2452H66.9476V38.0232H73.1031V39.2452H70.7046V45.0432H69.3461ZM74.3307 45.0432V38.0232H75.6957V40.4607H77.0802C77.2796 40.4607 77.4919 40.465 77.7172 40.4737C77.9469 40.4824 78.1441 40.504 78.3087 40.5387C78.6857 40.6167 79.0107 40.7467 79.2837 40.9287C79.5611 41.1107 79.7756 41.3534 79.9272 41.6567C80.0789 41.9557 80.1547 42.324 80.1547 42.7617C80.1547 43.3727 79.9944 43.8602 79.6737 44.2242C79.3574 44.5839 78.9284 44.8265 78.3867 44.9522C78.2134 44.9912 78.0076 45.0172 77.7692 45.0302C77.5352 45.0389 77.3207 45.0432 77.1257 45.0432H74.3307ZM75.6957 43.9512H77.2037C77.3121 43.9512 77.4356 43.9469 77.5742 43.9382C77.7129 43.9295 77.8407 43.91 77.9577 43.8797C78.1657 43.819 78.3521 43.6955 78.5167 43.5092C78.6814 43.3229 78.7637 43.0737 78.7637 42.7617C78.7637 42.441 78.6814 42.1854 78.5167 41.9947C78.3564 41.804 78.1527 41.6805 77.9057 41.6242C77.7887 41.5939 77.6696 41.5744 77.5482 41.5657C77.4269 41.557 77.3121 41.5527 77.2037 41.5527H75.6957V43.9512ZM29.0478 63.2382C28.3761 63.2382 27.8128 63.0757 27.3578 62.7507C26.9028 62.4214 26.5583 61.9772 26.3243 61.4182C26.0903 60.8592 25.9733 60.2287 25.9733 59.5267C25.9733 58.8247 26.0881 58.1942 26.3178 57.6352C26.5518 57.0762 26.8941 56.6364 27.3448 56.3157C27.7998 55.9907 28.3588 55.8282 29.0218 55.8282C29.6805 55.8282 30.2481 55.9907 30.7248 56.3157C31.2058 56.6364 31.5763 57.0762 31.8363 57.6352C32.0963 58.1899 32.2263 58.8204 32.2263 59.5267C32.2263 60.2287 32.0963 60.8614 31.8363 61.4247C31.5806 61.9837 31.2145 62.4257 30.7378 62.7507C30.2655 63.0757 29.7021 63.2382 29.0478 63.2382ZM25.7458 66.1632V56.0232H26.9548V61.0737H27.1108V66.1632H25.7458ZM28.8593 62.0097C29.2926 62.0097 29.6501 61.8992 29.9318 61.6782C30.2178 61.4572 30.4301 61.1604 30.5688 60.7877C30.7118 60.4107 30.7833 59.9904 30.7833 59.5267C30.7833 59.0674 30.7118 58.6514 30.5688 58.2787C30.4301 57.906 30.2156 57.6092 29.9253 57.3882C29.635 57.1672 29.2645 57.0567 28.8138 57.0567C28.3891 57.0567 28.0381 57.1607 27.7608 57.3687C27.4878 57.5767 27.2841 57.867 27.1498 58.2397C27.0198 58.6124 26.9548 59.0414 26.9548 59.5267C26.9548 60.012 27.0198 60.441 27.1498 60.8137C27.2798 61.1864 27.4856 61.4789 27.7673 61.6912C28.049 61.9035 28.413 62.0097 28.8593 62.0097ZM36.775 63.2382C36.0773 63.2382 35.4641 63.0865 34.9355 62.7832C34.4111 62.4755 34.0016 62.0487 33.707 61.5027C33.4166 60.9524 33.2715 60.3154 33.2715 59.5917C33.2715 58.8247 33.4145 58.1595 33.7005 57.5962C33.9908 57.0329 34.3938 56.5974 34.9095 56.2897C35.4251 55.982 36.0253 55.8282 36.71 55.8282C37.425 55.8282 38.0338 55.995 38.5365 56.3287C39.0391 56.658 39.414 57.1282 39.661 57.7392C39.9123 58.3502 40.012 59.076 39.96 59.9167H38.6015V59.4227C38.5928 58.608 38.4368 58.0057 38.1335 57.6157C37.8345 57.2257 37.3773 57.0307 36.762 57.0307C36.0816 57.0307 35.5703 57.2452 35.228 57.6742C34.8856 58.1032 34.7145 58.7229 34.7145 59.5332C34.7145 60.3045 34.8856 60.9025 35.228 61.3272C35.5703 61.7475 36.0643 61.9577 36.71 61.9577C37.1346 61.9577 37.5008 61.8624 37.8085 61.6717C38.1205 61.4767 38.3631 61.1994 38.5365 60.8397L39.869 61.2622C39.596 61.8905 39.1821 62.378 38.6275 62.7247C38.0728 63.067 37.4553 63.2382 36.775 63.2382ZM34.2725 59.9167V58.8572H39.284V59.9167H34.2725ZM43.6669 63.2382C42.9866 63.2382 42.3756 63.093 41.8339 62.8027C41.2966 62.5124 40.8719 62.1115 40.5599 61.6002L41.6389 60.8917C41.8902 61.2297 42.1806 61.4919 42.5099 61.6782C42.8436 61.8645 43.2184 61.9577 43.6344 61.9577C44.0677 61.9577 44.4101 61.8602 44.6614 61.6652C44.9171 61.4659 45.0449 61.1994 45.0449 60.8657C45.0449 60.6014 44.9712 60.4064 44.8239 60.2807C44.6809 60.1507 44.4816 60.0662 44.2259 60.0272C43.9746 59.9882 43.6886 59.9687 43.3679 59.9687H42.7439V58.8767H43.3679C43.7926 58.8767 44.1414 58.8182 44.4144 58.7012C44.6917 58.5799 44.8304 58.3524 44.8304 58.0187C44.8304 57.6937 44.7112 57.4597 44.4729 57.3167C44.2389 57.1737 43.9594 57.1022 43.6344 57.1022C43.2704 57.1022 42.9172 57.1802 42.5749 57.3362C42.2326 57.4879 41.9336 57.6764 41.6779 57.9017L40.8849 56.9722C41.2576 56.6125 41.6822 56.333 42.1589 56.1337C42.6399 55.93 43.1556 55.8282 43.7059 55.8282C44.1566 55.8282 44.5726 55.9084 44.9539 56.0687C45.3396 56.2247 45.6472 56.4565 45.8769 56.7642C46.1109 57.0719 46.2279 57.451 46.2279 57.9017C46.2279 58.2527 46.1499 58.5734 45.9939 58.8637C45.8379 59.154 45.5996 59.4184 45.2789 59.6567L45.2399 59.1952C45.5042 59.2775 45.7252 59.4097 45.9029 59.5917C46.0806 59.7737 46.2127 59.9882 46.2994 60.2352C46.3904 60.4779 46.4359 60.7357 46.4359 61.0087C46.4359 61.481 46.3102 61.884 46.0589 62.2177C45.8119 62.5514 45.4782 62.8049 45.0579 62.9782C44.6376 63.1515 44.1739 63.2382 43.6669 63.2382ZM53.7955 63.2382C53.2149 63.2382 52.697 63.1169 52.242 62.8742C51.7914 62.6315 51.423 62.2849 51.137 61.8342C50.851 61.3792 50.669 60.8397 50.591 60.2157H49.2195V63.0432H47.861V56.0232H49.2195V58.8507H50.5845C50.6625 58.2137 50.8467 57.6699 51.137 57.2192C51.4274 56.7685 51.8 56.424 52.255 56.1857C52.7144 55.9474 53.2344 55.8282 53.815 55.8282C54.5127 55.8282 55.1172 55.9864 55.6285 56.3027C56.1399 56.619 56.5364 57.0567 56.818 57.6157C57.0997 58.1704 57.2405 58.8052 57.2405 59.5202C57.2405 60.2525 57.0975 60.8982 56.8115 61.4572C56.5299 62.0162 56.1312 62.4539 55.6155 62.7702C55.0999 63.0822 54.4932 63.2382 53.7955 63.2382ZM53.776 61.9577C54.4564 61.9577 54.9634 61.7324 55.297 61.2817C55.6307 60.831 55.7975 60.246 55.7975 59.5267C55.7975 58.7857 55.6285 58.1985 55.2905 57.7652C54.9569 57.3275 54.4542 57.1087 53.7825 57.1087C53.1282 57.1087 52.6342 57.3275 52.3005 57.7652C51.9669 58.1985 51.8 58.7835 51.8 59.5202C51.8 60.2612 51.9669 60.8527 52.3005 61.2947C52.6385 61.7367 53.1304 61.9577 53.776 61.9577ZM58.6647 63.0432V56.0232H59.8022L62.3957 61.1712L64.9827 56.0232H66.1267V63.0432H64.8137V58.8052L62.7012 63.0432H62.0837L59.9712 58.8052V63.0432H58.6647ZM71.065 63.2382C70.3673 63.2382 69.7542 63.0865 69.2255 62.7832C68.7012 62.4755 68.2917 62.0487 67.997 61.5027C67.7067 60.9524 67.5615 60.3154 67.5615 59.5917C67.5615 58.8247 67.7045 58.1595 67.9905 57.5962C68.2808 57.0329 68.6838 56.5974 69.1995 56.2897C69.7152 55.982 70.3153 55.8282 71 55.8282C71.715 55.8282 72.3238 55.995 72.8265 56.3287C73.3292 56.658 73.704 57.1282 73.951 57.7392C74.2023 58.3502 74.302 59.076 74.25 59.9167H72.8915V59.4227C72.8828 58.608 72.7268 58.0057 72.4235 57.6157C72.1245 57.2257 71.6673 57.0307 71.052 57.0307C70.3717 57.0307 69.8603 57.2452 69.518 57.6742C69.1757 58.1032 69.0045 58.7229 69.0045 59.5332C69.0045 60.3045 69.1757 60.9025 69.518 61.3272C69.8603 61.7475 70.3543 61.9577 71 61.9577C71.4247 61.9577 71.7908 61.8624 72.0985 61.6717C72.4105 61.4767 72.6532 61.1994 72.8265 60.8397L74.159 61.2622C73.886 61.8905 73.4722 62.378 72.9175 62.7247C72.3628 63.067 71.7453 63.2382 71.065 63.2382ZM68.5625 59.9167V58.8572H73.574V59.9167H68.5625Z" fill="url(#paint1_linear)"/>
<defs>
<linearGradient id="paint0_linear" x1="39.5861" y1="23.3491" x2="59.7652" y2="3.68374" gradientUnits="userSpaceOnUse">
<stop stop-color="#481380"/>
<stop offset="1" stop-color="#FFE2FF"/>
</linearGradient>
<linearGradient id="paint1_linear" x1="10.5881" y1="81.0011" x2="96.1576" y2="12.8129" gradientUnits="userSpaceOnUse">
<stop stop-color="#481380"/>
<stop offset="1" stop-color="#FFE2FF"/>
</linearGradient>
</defs>
</svg>
