<svg width="100" height="68" viewBox="0 0 100 68" fill="none" xmlns="http://www.w3.org/2000/svg">
<path fill-rule="evenodd" clip-rule="evenodd" d="M49.8047 1.80908C50.3175 1.80908 50.7402 2.19512 50.798 2.69246L50.8047 2.80908V11.8091H59.8047C60.357 11.8091 60.8047 12.2568 60.8047 12.8091C60.8047 13.3219 60.4186 13.7446 59.9213 13.8024L59.8047 13.8091H50.8047V22.8091C50.8047 23.3614 50.357 23.8091 49.8047 23.8091C49.2919 23.8091 48.8692 23.423 48.8114 22.9257L48.8047 22.8091V13.8091H39.8047C39.2524 13.8091 38.8047 13.3614 38.8047 12.8091C38.8047 12.2962 39.1907 11.8736 39.6881 11.8158L39.8047 11.8091H48.8047V2.80908C48.8047 2.2568 49.2524 1.80908 49.8047 1.80908Z" fill="#272727"/>
<path fill-rule="evenodd" clip-rule="evenodd" d="M49.8047 1.80908C50.3175 1.80908 50.7402 2.19512 50.798 2.69246L50.8047 2.80908V11.8091H59.8047C60.357 11.8091 60.8047 12.2568 60.8047 12.8091C60.8047 13.3219 60.4186 13.7446 59.9213 13.8024L59.8047 13.8091H50.8047V22.8091C50.8047 23.3614 50.357 23.8091 49.8047 23.8091C49.2919 23.8091 48.8692 23.423 48.8114 22.9257L48.8047 22.8091V13.8091H39.8047C39.2524 13.8091 38.8047 13.3614 38.8047 12.8091C38.8047 12.2962 39.1907 11.8736 39.6881 11.8158L39.8047 11.8091H48.8047V2.80908C48.8047 2.2568 49.2524 1.80908 49.8047 1.80908Z" fill="#481380"/>
<path fill-rule="evenodd" clip-rule="evenodd" d="M49.8047 1.80908C50.3175 1.80908 50.7402 2.19512 50.798 2.69246L50.8047 2.80908V11.8091H59.8047C60.357 11.8091 60.8047 12.2568 60.8047 12.8091C60.8047 13.3219 60.4186 13.7446 59.9213 13.8024L59.8047 13.8091H50.8047V22.8091C50.8047 23.3614 50.357 23.8091 49.8047 23.8091C49.2919 23.8091 48.8692 23.423 48.8114 22.9257L48.8047 22.8091V13.8091H39.8047C39.2524 13.8091 38.8047 13.3614 38.8047 12.8091C38.8047 12.2962 39.1907 11.8736 39.6881 11.8158L39.8047 11.8091H48.8047V2.80908C48.8047 2.2568 49.2524 1.80908 49.8047 1.80908Z" fill="url(#paint0_linear)"/>
<path d="M19.3842 47.0632V44.2227C19.7049 44.2227 19.9692 44.1425 20.1772 43.9822C20.3852 43.8175 20.5499 43.5943 20.6712 43.3127C20.7969 43.0267 20.8922 42.7017 20.9572 42.3377C21.0266 41.9737 21.0786 41.5902 21.1132 41.1872C21.1652 40.6412 21.2086 40.1082 21.2432 39.5882C21.2822 39.0638 21.3169 38.5222 21.3472 37.9632C21.3819 37.4042 21.4187 36.7953 21.4577 36.1367L27.4507 36.1432V44.2227H28.1462V47.0632H26.7812V45.5032H20.7427V47.0632H19.3842ZM21.6137 44.2227H26.0922V37.4237L22.7122 37.4172C22.6819 37.8938 22.6559 38.3467 22.6342 38.7757C22.6126 39.2047 22.5844 39.638 22.5497 40.0757C22.5194 40.509 22.4804 40.9748 22.4327 41.4732C22.3851 41.9498 22.3352 42.355 22.2832 42.6887C22.2312 43.018 22.1532 43.304 22.0492 43.5467C21.9496 43.7893 21.8044 44.0147 21.6137 44.2227ZM32.6191 45.6982C31.9171 45.6982 31.3083 45.54 30.7926 45.2237C30.277 44.9073 29.8783 44.4718 29.5966 43.9172C29.3193 43.3582 29.1806 42.7147 29.1806 41.9867C29.1806 41.2543 29.3236 40.6108 29.6096 40.0562C29.8956 39.4972 30.2965 39.0638 30.8121 38.7562C31.3278 38.4442 31.9301 38.2882 32.6191 38.2882C33.3211 38.2882 33.93 38.4463 34.4456 38.7627C34.9613 39.079 35.36 39.5145 35.6416 40.0692C35.9233 40.6238 36.0641 41.263 36.0641 41.9867C36.0641 42.719 35.9211 43.3647 35.6351 43.9237C35.3535 44.4783 34.9548 44.9138 34.4391 45.2302C33.9235 45.5422 33.3168 45.6982 32.6191 45.6982ZM32.6191 44.4177C33.2908 44.4177 33.7913 44.1923 34.1206 43.7417C34.4543 43.2867 34.6211 42.7017 34.6211 41.9867C34.6211 41.2543 34.4521 40.6693 34.1141 40.2317C33.7805 39.7897 33.2821 39.5687 32.6191 39.5687C32.1641 39.5687 31.7893 39.6727 31.4946 39.8807C31.2 40.0843 30.9811 40.3682 30.8381 40.7322C30.6951 41.0918 30.6236 41.51 30.6236 41.9867C30.6236 42.7233 30.7926 43.3127 31.1306 43.7547C31.4686 44.1967 31.9648 44.4177 32.6191 44.4177ZM40.3785 45.7047C39.7112 45.7003 39.1435 45.5552 38.6755 45.2692C38.2075 44.9832 37.8414 44.5715 37.577 44.0342C37.317 43.4925 37.1654 42.8403 37.122 42.0777C37.1004 41.7093 37.1025 41.302 37.1285 40.8557C37.1545 40.405 37.2022 39.9695 37.2715 39.5492C37.3452 39.1288 37.4384 38.7778 37.551 38.4962C37.6767 38.1842 37.8479 37.8982 38.0645 37.6382C38.2812 37.3738 38.5195 37.1528 38.7795 36.9752C39.0569 36.7845 39.3645 36.6372 39.7025 36.5332C40.0405 36.4248 40.3937 36.3403 40.762 36.2797C41.1347 36.219 41.5095 36.167 41.8865 36.1237C42.2679 36.076 42.6384 36.0175 42.998 35.9482L43.128 37.1637C42.8897 37.22 42.608 37.2655 42.283 37.3002C41.9624 37.3348 41.6287 37.3738 41.282 37.4172C40.9397 37.4605 40.6125 37.5212 40.3005 37.5992C39.9885 37.6772 39.7177 37.7877 39.488 37.9307C39.163 38.13 38.9139 38.4203 38.7405 38.8017C38.5715 39.183 38.4697 39.5968 38.435 40.0432C38.7037 39.6358 39.046 39.3433 39.462 39.1657C39.878 38.9837 40.3092 38.8927 40.7555 38.8927C41.3795 38.8927 41.9169 39.04 42.3675 39.3347C42.8225 39.6293 43.1714 40.0302 43.414 40.5372C43.6567 41.0442 43.778 41.6183 43.778 42.2597C43.778 42.953 43.635 43.5597 43.349 44.0797C43.0674 44.5953 42.6709 44.9983 42.1595 45.2887C41.6482 45.5747 41.0545 45.7133 40.3785 45.7047ZM40.45 44.4242C41.074 44.4242 41.5442 44.2313 41.8605 43.8457C42.1812 43.46 42.3415 42.9465 42.3415 42.3052C42.3415 41.6465 42.1769 41.1287 41.8475 40.7517C41.5182 40.3747 41.0524 40.1862 40.45 40.1862C39.839 40.1862 39.371 40.3747 39.046 40.7517C38.7254 41.1287 38.565 41.6465 38.565 42.3052C38.565 42.9725 38.7275 43.4925 39.0525 43.8652C39.3775 44.2378 39.8434 44.4242 40.45 44.4242ZM47.1938 45.6982C46.6738 45.6982 46.2383 45.6028 45.8873 45.4122C45.5363 45.2172 45.2698 44.9615 45.0878 44.6452C44.9101 44.3245 44.8213 43.9735 44.8213 43.5922C44.8213 43.2368 44.8841 42.9248 45.0098 42.6562C45.1354 42.3875 45.3218 42.16 45.5688 41.9737C45.8158 41.783 46.1191 41.6292 46.4788 41.5122C46.7908 41.4212 47.1439 41.341 47.5383 41.2717C47.9326 41.2023 48.3464 41.1373 48.7798 41.0767C49.2174 41.016 49.6508 40.9553 50.0798 40.8947L49.5858 41.1677C49.5944 40.6173 49.4774 40.21 49.2348 39.9457C48.9964 39.677 48.5848 39.5427 47.9998 39.5427C47.6314 39.5427 47.2934 39.6293 46.9858 39.8027C46.6781 39.9717 46.4636 40.2533 46.3423 40.6477L45.0748 40.2577C45.2481 39.6553 45.5774 39.1765 46.0628 38.8212C46.5524 38.4658 47.2024 38.2882 48.0128 38.2882C48.6411 38.2882 49.1871 38.3965 49.6508 38.6132C50.1188 38.8255 50.4611 39.1635 50.6778 39.6272C50.7904 39.8568 50.8598 40.0995 50.8858 40.3552C50.9118 40.6108 50.9248 40.886 50.9248 41.1807V45.5032H49.7223V43.8977L49.9563 44.1057C49.6659 44.643 49.2954 45.0438 48.8448 45.3082C48.3984 45.5682 47.8481 45.6982 47.1938 45.6982ZM47.4343 44.5867C47.8199 44.5867 48.1514 44.5195 48.4288 44.3852C48.7061 44.2465 48.9293 44.071 49.0983 43.8587C49.2673 43.6463 49.3778 43.4253 49.4298 43.1957C49.5034 42.9877 49.5446 42.7537 49.5533 42.4937C49.5663 42.2337 49.5728 42.0257 49.5728 41.8697L50.0148 42.0322C49.5858 42.0972 49.1958 42.1557 48.8448 42.2077C48.4938 42.2597 48.1753 42.3117 47.8893 42.3637C47.6076 42.4113 47.3563 42.4698 47.1353 42.5392C46.9489 42.6042 46.7821 42.6822 46.6348 42.7732C46.4918 42.8642 46.3769 42.9747 46.2903 43.1047C46.2079 43.2347 46.1668 43.3928 46.1668 43.5792C46.1668 43.7612 46.2123 43.9302 46.3033 44.0862C46.3943 44.2378 46.5329 44.3592 46.7193 44.4502C46.9056 44.5412 47.1439 44.5867 47.4343 44.5867ZM52.6061 45.5032V38.4832H55.6936C55.8973 38.4832 56.101 38.4962 56.3046 38.5222C56.5083 38.5438 56.6881 38.5763 56.8441 38.6197C57.1995 38.7193 57.5028 38.9187 57.7541 39.2177C58.0055 39.5123 58.1311 39.9067 58.1311 40.4007C58.1311 40.6823 58.0878 40.9207 58.0011 41.1157C57.9145 41.3063 57.7953 41.471 57.6436 41.6097C57.5743 41.6703 57.5006 41.7245 57.4226 41.7722C57.3446 41.8198 57.2666 41.8567 57.1886 41.8827C57.349 41.9087 57.5071 41.965 57.6631 42.0517C57.9015 42.1773 58.0965 42.3593 58.2481 42.5977C58.4041 42.8317 58.4821 43.1458 58.4821 43.5402C58.4821 44.0125 58.3673 44.409 58.1376 44.7297C57.908 45.046 57.583 45.2627 57.1626 45.3797C56.998 45.4273 56.8116 45.4598 56.6036 45.4772C56.4 45.4945 56.1963 45.5032 55.9926 45.5032H52.6061ZM53.9841 44.4307H55.9081C55.9991 44.4307 56.1031 44.422 56.2201 44.4047C56.3371 44.3873 56.4411 44.3635 56.5321 44.3332C56.7271 44.2725 56.8658 44.162 56.9481 44.0017C57.0348 43.8413 57.0781 43.6702 57.0781 43.4882C57.0781 43.2412 57.0131 43.044 56.8831 42.8967C56.7531 42.745 56.5885 42.6475 56.3891 42.6042C56.3025 42.5738 56.2071 42.5565 56.1031 42.5522C55.9991 42.5478 55.9103 42.5457 55.8366 42.5457H53.9841V44.4307ZM53.9841 41.4537H55.5051C55.6308 41.4537 55.7586 41.4472 55.8886 41.4342C56.0186 41.4168 56.1313 41.3887 56.2266 41.3497C56.3956 41.2847 56.5213 41.1763 56.6036 41.0247C56.686 40.8687 56.7271 40.6997 56.7271 40.5177C56.7271 40.3183 56.6816 40.1407 56.5906 39.9847C56.4996 39.8287 56.3631 39.7203 56.1811 39.6597C56.0555 39.6163 55.9103 39.5925 55.7456 39.5882C55.5853 39.5795 55.4835 39.5752 55.4401 39.5752H53.9841V41.4537ZM65.7005 38.4832V45.5032H64.394V40.6217L60.884 45.5032H59.779V38.4832H61.0855V43.2672L64.602 38.4832H65.7005ZM69.3304 45.5032V39.7052H66.9319V38.4832H73.0874V39.7052H70.6889V45.5032H69.3304ZM74.3151 45.5032V38.4832H75.6801V40.9207H77.0646C77.264 40.9207 77.4763 40.925 77.7016 40.9337C77.9313 40.9423 78.1285 40.964 78.2931 40.9987C78.6701 41.0767 78.9951 41.2067 79.2681 41.3887C79.5455 41.5707 79.76 41.8133 79.9116 42.1167C80.0633 42.4157 80.1391 42.784 80.1391 43.2217C80.1391 43.8327 79.9788 44.3202 79.6581 44.6842C79.3418 45.0438 78.9128 45.2865 78.3711 45.4122C78.1978 45.4512 77.992 45.4772 77.7536 45.4902C77.5196 45.4988 77.3051 45.5032 77.1101 45.5032H74.3151ZM75.6801 44.4112H77.1881C77.2965 44.4112 77.42 44.4068 77.5586 44.3982C77.6973 44.3895 77.8251 44.37 77.9421 44.3397C78.1501 44.279 78.3365 44.1555 78.5011 43.9692C78.6658 43.7828 78.7481 43.5337 78.7481 43.2217C78.7481 42.901 78.6658 42.6453 78.5011 42.4547C78.3408 42.264 78.1371 42.1405 77.8901 42.0842C77.7731 42.0538 77.654 42.0343 77.5326 42.0257C77.4113 42.017 77.2965 42.0127 77.1881 42.0127H75.6801V44.4112ZM31.3796 63.5032V56.4832H34.4671C34.6707 56.4832 34.8744 56.4962 35.0781 56.5222C35.2817 56.5438 35.4616 56.5763 35.6176 56.6197C35.9729 56.7193 36.2762 56.9187 36.5276 57.2177C36.7789 57.5123 36.9046 57.9067 36.9046 58.4007C36.9046 58.6823 36.8612 58.9207 36.7746 59.1157C36.6879 59.3063 36.5687 59.471 36.4171 59.6097C36.3477 59.6703 36.2741 59.7245 36.1961 59.7722C36.1181 59.8198 36.0401 59.8567 35.9621 59.8827C36.1224 59.9087 36.2806 59.965 36.4366 60.0517C36.6749 60.1773 36.8699 60.3593 37.0216 60.5977C37.1776 60.8317 37.2556 61.1458 37.2556 61.5402C37.2556 62.0125 37.1407 62.409 36.9111 62.7297C36.6814 63.046 36.3564 63.2627 35.9361 63.3797C35.7714 63.4273 35.5851 63.4598 35.3771 63.4772C35.1734 63.4945 34.9697 63.5032 34.7661 63.5032H31.3796ZM32.7576 62.4307H34.6816C34.7726 62.4307 34.8766 62.422 34.9936 62.4047C35.1106 62.3873 35.2146 62.3635 35.3056 62.3332C35.5006 62.2725 35.6392 62.162 35.7216 62.0017C35.8082 61.8413 35.8516 61.6702 35.8516 61.4882C35.8516 61.2412 35.7866 61.044 35.6566 60.8967C35.5266 60.745 35.3619 60.6475 35.1626 60.6042C35.0759 60.5738 34.9806 60.5565 34.8766 60.5522C34.7726 60.5478 34.6837 60.5457 34.6101 60.5457H32.7576V62.4307ZM32.7576 59.4537H34.2786C34.4042 59.4537 34.5321 59.4472 34.6621 59.4342C34.7921 59.4168 34.9047 59.3887 35.0001 59.3497C35.1691 59.2847 35.2947 59.1763 35.3771 59.0247C35.4594 58.8687 35.5006 58.6997 35.5006 58.5177C35.5006 58.3183 35.4551 58.1407 35.3641 57.9847C35.2731 57.8287 35.1366 57.7203 34.9546 57.6597C34.8289 57.6163 34.6837 57.5925 34.5191 57.5882C34.3587 57.5795 34.2569 57.5752 34.2136 57.5752H32.7576V59.4537ZM44.4739 56.4832V63.5032H43.1674V58.6217L39.6574 63.5032H38.5524V56.4832H39.8589V61.2672L43.3754 56.4832H44.4739ZM45.7704 65.0632V62.4112C46.156 62.4112 46.4312 62.2833 46.5959 62.0277C46.7649 61.7677 46.8992 61.3278 46.9989 60.7082C47.0595 60.3312 47.1094 59.9303 47.1484 59.5057C47.1917 59.081 47.2285 58.6217 47.2589 58.1277C47.2892 57.6293 47.3195 57.0812 47.3499 56.4832H52.3809V62.4112H53.0699V65.0632H51.7829V63.5032H47.0639V65.0632H45.7704ZM47.7139 62.4112H51.0159V57.5752H48.5589C48.5415 57.8612 48.522 58.1558 48.5004 58.4592C48.483 58.7625 48.4614 59.0637 48.4354 59.3627C48.4137 59.6617 48.3877 59.9477 48.3574 60.2207C48.327 60.4937 48.2924 60.7407 48.2534 60.9617C48.2014 61.304 48.1385 61.59 48.0649 61.8197C47.9955 62.0493 47.8785 62.2465 47.7139 62.4112ZM57.4781 63.6982C56.7804 63.6982 56.1673 63.5465 55.6386 63.2432C55.1143 62.9355 54.7048 62.5087 54.4101 61.9627C54.1198 61.4123 53.9746 60.7753 53.9746 60.0517C53.9746 59.2847 54.1176 58.6195 54.4036 58.0562C54.6939 57.4928 55.0969 57.0573 55.6126 56.7497C56.1283 56.442 56.7284 56.2882 57.4131 56.2882C58.1281 56.2882 58.7369 56.455 59.2396 56.7887C59.7423 57.118 60.1171 57.5882 60.3641 58.1992C60.6154 58.8102 60.7151 59.536 60.6631 60.3767H59.3046V59.8827C59.2959 59.068 59.1399 58.4657 58.8366 58.0757C58.5376 57.6857 58.0804 57.4907 57.4651 57.4907C56.7848 57.4907 56.2734 57.7052 55.9311 58.1342C55.5888 58.5632 55.4176 59.1828 55.4176 59.9932C55.4176 60.7645 55.5888 61.3625 55.9311 61.7872C56.2734 62.2075 56.7674 62.4177 57.4131 62.4177C57.8378 62.4177 58.2039 62.3223 58.5116 62.1317C58.8236 61.9367 59.0663 61.6593 59.2396 61.2997L60.5721 61.7222C60.2991 62.3505 59.8853 62.838 59.3306 63.1847C58.7759 63.527 58.1584 63.6982 57.4781 63.6982ZM54.9756 60.3767V59.3172H59.9871V60.3767H54.9756ZM65.1699 63.6982C64.4679 63.6982 63.8591 63.54 63.3434 63.2237C62.8278 62.9073 62.4291 62.4718 62.1474 61.9172C61.8701 61.3582 61.7314 60.7147 61.7314 59.9867C61.7314 59.2543 61.8744 58.6108 62.1604 58.0562C62.4464 57.4972 62.8473 57.0638 63.3629 56.7562C63.8786 56.4442 64.4809 56.2882 65.1699 56.2882C65.8719 56.2882 66.4808 56.4463 66.9964 56.7627C67.5121 57.079 67.9108 57.5145 68.1924 58.0692C68.4741 58.6238 68.6149 59.263 68.6149 59.9867C68.6149 60.719 68.4719 61.3647 68.1859 61.9237C67.9043 62.4783 67.5056 62.9138 66.9899 63.2302C66.4743 63.5422 65.8676 63.6982 65.1699 63.6982ZM65.1699 62.4177C65.8416 62.4177 66.3421 62.1923 66.6714 61.7417C67.0051 61.2867 67.1719 60.7017 67.1719 59.9867C67.1719 59.2543 67.0029 58.6693 66.6649 58.2317C66.3313 57.7897 65.8329 57.5687 65.1699 57.5687C64.7149 57.5687 64.3401 57.6727 64.0454 57.8807C63.7508 58.0843 63.5319 58.3682 63.3889 58.7322C63.2459 59.0918 63.1744 59.51 63.1744 59.9867C63.1744 60.7233 63.3434 61.3127 63.6814 61.7547C64.0194 62.1967 64.5156 62.4177 65.1699 62.4177Z" fill="#481380"/>
<path d="M19.3842 47.0632V44.2227C19.7049 44.2227 19.9692 44.1425 20.1772 43.9822C20.3852 43.8175 20.5499 43.5943 20.6712 43.3127C20.7969 43.0267 20.8922 42.7017 20.9572 42.3377C21.0266 41.9737 21.0786 41.5902 21.1132 41.1872C21.1652 40.6412 21.2086 40.1082 21.2432 39.5882C21.2822 39.0638 21.3169 38.5222 21.3472 37.9632C21.3819 37.4042 21.4187 36.7953 21.4577 36.1367L27.4507 36.1432V44.2227H28.1462V47.0632H26.7812V45.5032H20.7427V47.0632H19.3842ZM21.6137 44.2227H26.0922V37.4237L22.7122 37.4172C22.6819 37.8938 22.6559 38.3467 22.6342 38.7757C22.6126 39.2047 22.5844 39.638 22.5497 40.0757C22.5194 40.509 22.4804 40.9748 22.4327 41.4732C22.3851 41.9498 22.3352 42.355 22.2832 42.6887C22.2312 43.018 22.1532 43.304 22.0492 43.5467C21.9496 43.7893 21.8044 44.0147 21.6137 44.2227ZM32.6191 45.6982C31.9171 45.6982 31.3083 45.54 30.7926 45.2237C30.277 44.9073 29.8783 44.4718 29.5966 43.9172C29.3193 43.3582 29.1806 42.7147 29.1806 41.9867C29.1806 41.2543 29.3236 40.6108 29.6096 40.0562C29.8956 39.4972 30.2965 39.0638 30.8121 38.7562C31.3278 38.4442 31.9301 38.2882 32.6191 38.2882C33.3211 38.2882 33.93 38.4463 34.4456 38.7627C34.9613 39.079 35.36 39.5145 35.6416 40.0692C35.9233 40.6238 36.0641 41.263 36.0641 41.9867C36.0641 42.719 35.9211 43.3647 35.6351 43.9237C35.3535 44.4783 34.9548 44.9138 34.4391 45.2302C33.9235 45.5422 33.3168 45.6982 32.6191 45.6982ZM32.6191 44.4177C33.2908 44.4177 33.7913 44.1923 34.1206 43.7417C34.4543 43.2867 34.6211 42.7017 34.6211 41.9867C34.6211 41.2543 34.4521 40.6693 34.1141 40.2317C33.7805 39.7897 33.2821 39.5687 32.6191 39.5687C32.1641 39.5687 31.7893 39.6727 31.4946 39.8807C31.2 40.0843 30.9811 40.3682 30.8381 40.7322C30.6951 41.0918 30.6236 41.51 30.6236 41.9867C30.6236 42.7233 30.7926 43.3127 31.1306 43.7547C31.4686 44.1967 31.9648 44.4177 32.6191 44.4177ZM40.3785 45.7047C39.7112 45.7003 39.1435 45.5552 38.6755 45.2692C38.2075 44.9832 37.8414 44.5715 37.577 44.0342C37.317 43.4925 37.1654 42.8403 37.122 42.0777C37.1004 41.7093 37.1025 41.302 37.1285 40.8557C37.1545 40.405 37.2022 39.9695 37.2715 39.5492C37.3452 39.1288 37.4384 38.7778 37.551 38.4962C37.6767 38.1842 37.8479 37.8982 38.0645 37.6382C38.2812 37.3738 38.5195 37.1528 38.7795 36.9752C39.0569 36.7845 39.3645 36.6372 39.7025 36.5332C40.0405 36.4248 40.3937 36.3403 40.762 36.2797C41.1347 36.219 41.5095 36.167 41.8865 36.1237C42.2679 36.076 42.6384 36.0175 42.998 35.9482L43.128 37.1637C42.8897 37.22 42.608 37.2655 42.283 37.3002C41.9624 37.3348 41.6287 37.3738 41.282 37.4172C40.9397 37.4605 40.6125 37.5212 40.3005 37.5992C39.9885 37.6772 39.7177 37.7877 39.488 37.9307C39.163 38.13 38.9139 38.4203 38.7405 38.8017C38.5715 39.183 38.4697 39.5968 38.435 40.0432C38.7037 39.6358 39.046 39.3433 39.462 39.1657C39.878 38.9837 40.3092 38.8927 40.7555 38.8927C41.3795 38.8927 41.9169 39.04 42.3675 39.3347C42.8225 39.6293 43.1714 40.0302 43.414 40.5372C43.6567 41.0442 43.778 41.6183 43.778 42.2597C43.778 42.953 43.635 43.5597 43.349 44.0797C43.0674 44.5953 42.6709 44.9983 42.1595 45.2887C41.6482 45.5747 41.0545 45.7133 40.3785 45.7047ZM40.45 44.4242C41.074 44.4242 41.5442 44.2313 41.8605 43.8457C42.1812 43.46 42.3415 42.9465 42.3415 42.3052C42.3415 41.6465 42.1769 41.1287 41.8475 40.7517C41.5182 40.3747 41.0524 40.1862 40.45 40.1862C39.839 40.1862 39.371 40.3747 39.046 40.7517C38.7254 41.1287 38.565 41.6465 38.565 42.3052C38.565 42.9725 38.7275 43.4925 39.0525 43.8652C39.3775 44.2378 39.8434 44.4242 40.45 44.4242ZM47.1938 45.6982C46.6738 45.6982 46.2383 45.6028 45.8873 45.4122C45.5363 45.2172 45.2698 44.9615 45.0878 44.6452C44.9101 44.3245 44.8213 43.9735 44.8213 43.5922C44.8213 43.2368 44.8841 42.9248 45.0098 42.6562C45.1354 42.3875 45.3218 42.16 45.5688 41.9737C45.8158 41.783 46.1191 41.6292 46.4788 41.5122C46.7908 41.4212 47.1439 41.341 47.5383 41.2717C47.9326 41.2023 48.3464 41.1373 48.7798 41.0767C49.2174 41.016 49.6508 40.9553 50.0798 40.8947L49.5858 41.1677C49.5944 40.6173 49.4774 40.21 49.2348 39.9457C48.9964 39.677 48.5848 39.5427 47.9998 39.5427C47.6314 39.5427 47.2934 39.6293 46.9858 39.8027C46.6781 39.9717 46.4636 40.2533 46.3423 40.6477L45.0748 40.2577C45.2481 39.6553 45.5774 39.1765 46.0628 38.8212C46.5524 38.4658 47.2024 38.2882 48.0128 38.2882C48.6411 38.2882 49.1871 38.3965 49.6508 38.6132C50.1188 38.8255 50.4611 39.1635 50.6778 39.6272C50.7904 39.8568 50.8598 40.0995 50.8858 40.3552C50.9118 40.6108 50.9248 40.886 50.9248 41.1807V45.5032H49.7223V43.8977L49.9563 44.1057C49.6659 44.643 49.2954 45.0438 48.8448 45.3082C48.3984 45.5682 47.8481 45.6982 47.1938 45.6982ZM47.4343 44.5867C47.8199 44.5867 48.1514 44.5195 48.4288 44.3852C48.7061 44.2465 48.9293 44.071 49.0983 43.8587C49.2673 43.6463 49.3778 43.4253 49.4298 43.1957C49.5034 42.9877 49.5446 42.7537 49.5533 42.4937C49.5663 42.2337 49.5728 42.0257 49.5728 41.8697L50.0148 42.0322C49.5858 42.0972 49.1958 42.1557 48.8448 42.2077C48.4938 42.2597 48.1753 42.3117 47.8893 42.3637C47.6076 42.4113 47.3563 42.4698 47.1353 42.5392C46.9489 42.6042 46.7821 42.6822 46.6348 42.7732C46.4918 42.8642 46.3769 42.9747 46.2903 43.1047C46.2079 43.2347 46.1668 43.3928 46.1668 43.5792C46.1668 43.7612 46.2123 43.9302 46.3033 44.0862C46.3943 44.2378 46.5329 44.3592 46.7193 44.4502C46.9056 44.5412 47.1439 44.5867 47.4343 44.5867ZM52.6061 45.5032V38.4832H55.6936C55.8973 38.4832 56.101 38.4962 56.3046 38.5222C56.5083 38.5438 56.6881 38.5763 56.8441 38.6197C57.1995 38.7193 57.5028 38.9187 57.7541 39.2177C58.0055 39.5123 58.1311 39.9067 58.1311 40.4007C58.1311 40.6823 58.0878 40.9207 58.0011 41.1157C57.9145 41.3063 57.7953 41.471 57.6436 41.6097C57.5743 41.6703 57.5006 41.7245 57.4226 41.7722C57.3446 41.8198 57.2666 41.8567 57.1886 41.8827C57.349 41.9087 57.5071 41.965 57.6631 42.0517C57.9015 42.1773 58.0965 42.3593 58.2481 42.5977C58.4041 42.8317 58.4821 43.1458 58.4821 43.5402C58.4821 44.0125 58.3673 44.409 58.1376 44.7297C57.908 45.046 57.583 45.2627 57.1626 45.3797C56.998 45.4273 56.8116 45.4598 56.6036 45.4772C56.4 45.4945 56.1963 45.5032 55.9926 45.5032H52.6061ZM53.9841 44.4307H55.9081C55.9991 44.4307 56.1031 44.422 56.2201 44.4047C56.3371 44.3873 56.4411 44.3635 56.5321 44.3332C56.7271 44.2725 56.8658 44.162 56.9481 44.0017C57.0348 43.8413 57.0781 43.6702 57.0781 43.4882C57.0781 43.2412 57.0131 43.044 56.8831 42.8967C56.7531 42.745 56.5885 42.6475 56.3891 42.6042C56.3025 42.5738 56.2071 42.5565 56.1031 42.5522C55.9991 42.5478 55.9103 42.5457 55.8366 42.5457H53.9841V44.4307ZM53.9841 41.4537H55.5051C55.6308 41.4537 55.7586 41.4472 55.8886 41.4342C56.0186 41.4168 56.1313 41.3887 56.2266 41.3497C56.3956 41.2847 56.5213 41.1763 56.6036 41.0247C56.686 40.8687 56.7271 40.6997 56.7271 40.5177C56.7271 40.3183 56.6816 40.1407 56.5906 39.9847C56.4996 39.8287 56.3631 39.7203 56.1811 39.6597C56.0555 39.6163 55.9103 39.5925 55.7456 39.5882C55.5853 39.5795 55.4835 39.5752 55.4401 39.5752H53.9841V41.4537ZM65.7005 38.4832V45.5032H64.394V40.6217L60.884 45.5032H59.779V38.4832H61.0855V43.2672L64.602 38.4832H65.7005ZM69.3304 45.5032V39.7052H66.9319V38.4832H73.0874V39.7052H70.6889V45.5032H69.3304ZM74.3151 45.5032V38.4832H75.6801V40.9207H77.0646C77.264 40.9207 77.4763 40.925 77.7016 40.9337C77.9313 40.9423 78.1285 40.964 78.2931 40.9987C78.6701 41.0767 78.9951 41.2067 79.2681 41.3887C79.5455 41.5707 79.76 41.8133 79.9116 42.1167C80.0633 42.4157 80.1391 42.784 80.1391 43.2217C80.1391 43.8327 79.9788 44.3202 79.6581 44.6842C79.3418 45.0438 78.9128 45.2865 78.3711 45.4122C78.1978 45.4512 77.992 45.4772 77.7536 45.4902C77.5196 45.4988 77.3051 45.5032 77.1101 45.5032H74.3151ZM75.6801 44.4112H77.1881C77.2965 44.4112 77.42 44.4068 77.5586 44.3982C77.6973 44.3895 77.8251 44.37 77.9421 44.3397C78.1501 44.279 78.3365 44.1555 78.5011 43.9692C78.6658 43.7828 78.7481 43.5337 78.7481 43.2217C78.7481 42.901 78.6658 42.6453 78.5011 42.4547C78.3408 42.264 78.1371 42.1405 77.8901 42.0842C77.7731 42.0538 77.654 42.0343 77.5326 42.0257C77.4113 42.017 77.2965 42.0127 77.1881 42.0127H75.6801V44.4112ZM31.3796 63.5032V56.4832H34.4671C34.6707 56.4832 34.8744 56.4962 35.0781 56.5222C35.2817 56.5438 35.4616 56.5763 35.6176 56.6197C35.9729 56.7193 36.2762 56.9187 36.5276 57.2177C36.7789 57.5123 36.9046 57.9067 36.9046 58.4007C36.9046 58.6823 36.8612 58.9207 36.7746 59.1157C36.6879 59.3063 36.5687 59.471 36.4171 59.6097C36.3477 59.6703 36.2741 59.7245 36.1961 59.7722C36.1181 59.8198 36.0401 59.8567 35.9621 59.8827C36.1224 59.9087 36.2806 59.965 36.4366 60.0517C36.6749 60.1773 36.8699 60.3593 37.0216 60.5977C37.1776 60.8317 37.2556 61.1458 37.2556 61.5402C37.2556 62.0125 37.1407 62.409 36.9111 62.7297C36.6814 63.046 36.3564 63.2627 35.9361 63.3797C35.7714 63.4273 35.5851 63.4598 35.3771 63.4772C35.1734 63.4945 34.9697 63.5032 34.7661 63.5032H31.3796ZM32.7576 62.4307H34.6816C34.7726 62.4307 34.8766 62.422 34.9936 62.4047C35.1106 62.3873 35.2146 62.3635 35.3056 62.3332C35.5006 62.2725 35.6392 62.162 35.7216 62.0017C35.8082 61.8413 35.8516 61.6702 35.8516 61.4882C35.8516 61.2412 35.7866 61.044 35.6566 60.8967C35.5266 60.745 35.3619 60.6475 35.1626 60.6042C35.0759 60.5738 34.9806 60.5565 34.8766 60.5522C34.7726 60.5478 34.6837 60.5457 34.6101 60.5457H32.7576V62.4307ZM32.7576 59.4537H34.2786C34.4042 59.4537 34.5321 59.4472 34.6621 59.4342C34.7921 59.4168 34.9047 59.3887 35.0001 59.3497C35.1691 59.2847 35.2947 59.1763 35.3771 59.0247C35.4594 58.8687 35.5006 58.6997 35.5006 58.5177C35.5006 58.3183 35.4551 58.1407 35.3641 57.9847C35.2731 57.8287 35.1366 57.7203 34.9546 57.6597C34.8289 57.6163 34.6837 57.5925 34.5191 57.5882C34.3587 57.5795 34.2569 57.5752 34.2136 57.5752H32.7576V59.4537ZM44.4739 56.4832V63.5032H43.1674V58.6217L39.6574 63.5032H38.5524V56.4832H39.8589V61.2672L43.3754 56.4832H44.4739ZM45.7704 65.0632V62.4112C46.156 62.4112 46.4312 62.2833 46.5959 62.0277C46.7649 61.7677 46.8992 61.3278 46.9989 60.7082C47.0595 60.3312 47.1094 59.9303 47.1484 59.5057C47.1917 59.081 47.2285 58.6217 47.2589 58.1277C47.2892 57.6293 47.3195 57.0812 47.3499 56.4832H52.3809V62.4112H53.0699V65.0632H51.7829V63.5032H47.0639V65.0632H45.7704ZM47.7139 62.4112H51.0159V57.5752H48.5589C48.5415 57.8612 48.522 58.1558 48.5004 58.4592C48.483 58.7625 48.4614 59.0637 48.4354 59.3627C48.4137 59.6617 48.3877 59.9477 48.3574 60.2207C48.327 60.4937 48.2924 60.7407 48.2534 60.9617C48.2014 61.304 48.1385 61.59 48.0649 61.8197C47.9955 62.0493 47.8785 62.2465 47.7139 62.4112ZM57.4781 63.6982C56.7804 63.6982 56.1673 63.5465 55.6386 63.2432C55.1143 62.9355 54.7048 62.5087 54.4101 61.9627C54.1198 61.4123 53.9746 60.7753 53.9746 60.0517C53.9746 59.2847 54.1176 58.6195 54.4036 58.0562C54.6939 57.4928 55.0969 57.0573 55.6126 56.7497C56.1283 56.442 56.7284 56.2882 57.4131 56.2882C58.1281 56.2882 58.7369 56.455 59.2396 56.7887C59.7423 57.118 60.1171 57.5882 60.3641 58.1992C60.6154 58.8102 60.7151 59.536 60.6631 60.3767H59.3046V59.8827C59.2959 59.068 59.1399 58.4657 58.8366 58.0757C58.5376 57.6857 58.0804 57.4907 57.4651 57.4907C56.7848 57.4907 56.2734 57.7052 55.9311 58.1342C55.5888 58.5632 55.4176 59.1828 55.4176 59.9932C55.4176 60.7645 55.5888 61.3625 55.9311 61.7872C56.2734 62.2075 56.7674 62.4177 57.4131 62.4177C57.8378 62.4177 58.2039 62.3223 58.5116 62.1317C58.8236 61.9367 59.0663 61.6593 59.2396 61.2997L60.5721 61.7222C60.2991 62.3505 59.8853 62.838 59.3306 63.1847C58.7759 63.527 58.1584 63.6982 57.4781 63.6982ZM54.9756 60.3767V59.3172H59.9871V60.3767H54.9756ZM65.1699 63.6982C64.4679 63.6982 63.8591 63.54 63.3434 63.2237C62.8278 62.9073 62.4291 62.4718 62.1474 61.9172C61.8701 61.3582 61.7314 60.7147 61.7314 59.9867C61.7314 59.2543 61.8744 58.6108 62.1604 58.0562C62.4464 57.4972 62.8473 57.0638 63.3629 56.7562C63.8786 56.4442 64.4809 56.2882 65.1699 56.2882C65.8719 56.2882 66.4808 56.4463 66.9964 56.7627C67.5121 57.079 67.9108 57.5145 68.1924 58.0692C68.4741 58.6238 68.6149 59.263 68.6149 59.9867C68.6149 60.719 68.4719 61.3647 68.1859 61.9237C67.9043 62.4783 67.5056 62.9138 66.9899 63.2302C66.4743 63.5422 65.8676 63.6982 65.1699 63.6982ZM65.1699 62.4177C65.8416 62.4177 66.3421 62.1923 66.6714 61.7417C67.0051 61.2867 67.1719 60.7017 67.1719 59.9867C67.1719 59.2543 67.0029 58.6693 66.6649 58.2317C66.3313 57.7897 65.8329 57.5687 65.1699 57.5687C64.7149 57.5687 64.3401 57.6727 64.0454 57.8807C63.7508 58.0843 63.5319 58.3682 63.3889 58.7322C63.2459 59.0918 63.1744 59.51 63.1744 59.9867C63.1744 60.7233 63.3434 61.3127 63.6814 61.7547C64.0194 62.1967 64.5156 62.4177 65.1699 62.4177Z" fill="url(#paint1_linear)"/>
<defs>
<linearGradient id="paint0_linear" x1="39.5705" y1="23.8091" x2="59.7496" y2="4.1437" gradientUnits="userSpaceOnUse">
<stop stop-color="#481380"/>
<stop offset="1" stop-color="#FFE2FF"/>
</linearGradient>
<linearGradient id="paint1_linear" x1="10.5725" y1="81.461" x2="96.142" y2="13.2728" gradientUnits="userSpaceOnUse">
<stop stop-color="#481380"/>
<stop offset="1" stop-color="#FFE2FF"/>
</linearGradient>
</defs>
</svg>
