<svg width="17" height="16" viewBox="0 0 17 16" fill="none" xmlns="http://www.w3.org/2000/svg">
<g clip-path="url(#clip0)">
<path d="M4.89825 15.7694C2.51697 15.7566 0.547218 11.1994 0.547218 8.8785C0.547218 5.08737 3.58081 4.25739 4.74994 4.25739C5.27681 4.25739 5.8394 4.45136 6.33562 4.62301C6.68262 4.74275 7.0415 4.86635 7.24109 4.86635C7.36056 4.86635 7.64209 4.76121 7.89065 4.66895C8.42075 4.47111 9.08037 4.22522 9.8485 4.22522C9.84987 4.22522 9.85172 4.22522 9.85306 4.22522C10.4266 4.22522 12.1657 4.34323 13.2112 5.81522L13.4561 6.16025L13.1037 6.40959C12.6001 6.76579 11.6814 7.41553 11.6814 8.70257C11.6814 10.2269 12.7219 10.8131 13.2217 11.0951C13.4424 11.2196 13.6708 11.3479 13.6708 11.6285C13.6708 11.8118 12.1107 15.7467 9.84528 15.7467C9.29093 15.7467 8.89909 15.5905 8.55346 15.4527C8.20375 15.3132 7.90206 15.1931 7.40356 15.1931C7.15087 15.1931 6.83134 15.3051 6.49306 15.424C6.03078 15.5857 5.50753 15.7694 4.91381 15.7694H4.89825Z" fill="#FDFDFD"/>
<path d="M10.0885 0.769409C10.1475 2.76382 8.6261 4.14746 7.10648 4.06068C6.85607 2.46907 8.62592 0.769409 10.0885 0.769409Z" fill="#FDFDFD"/>
</g>
<defs>
<clipPath id="clip0">
<rect width="16" height="15" fill="white" transform="translate(0.547218 0.769409)"/>
</clipPath>
</defs>
</svg>
