<svg width="25" height="25" viewBox="0 0 25 25" fill="none" xmlns="http://www.w3.org/2000/svg">
<g clip-path="url(#clip0)">
<path fill-rule="evenodd" clip-rule="evenodd" d="M20.4956 6.87988H4.49561C3.94332 6.87988 3.49561 7.3276 3.49561 7.87988V20.6299C3.49561 22.2867 4.83875 23.6299 6.49561 23.6299H18.4956C20.1525 23.6299 21.4956 22.2867 21.4956 20.6299V7.87988C21.4956 7.3276 21.0479 6.87988 20.4956 6.87988ZM5.49461 8.87988H19.4946L19.4956 20.6299C19.4956 21.1822 19.0479 21.6299 18.4956 21.6299H6.49561L6.37898 21.6232C5.88165 21.5654 5.49561 21.1427 5.49561 20.6299L5.49461 8.87988Z" fill="#FDFDFD"/>
<path fill-rule="evenodd" clip-rule="evenodd" d="M14.8558 0.629883C15.631 0.629883 16.3308 1.07697 16.6605 1.76776L16.7254 1.91945L17.1846 3.12988H21.4956C22.0084 3.12988 22.4311 3.51592 22.4889 4.01326L22.4956 4.12988C22.4956 4.64272 22.1096 5.06539 21.6122 5.12316L21.4956 5.12988H16.4956C16.1219 5.12988 15.7832 4.92202 15.6116 4.59748L15.5608 4.4851L14.8558 2.62988H10.1354L9.43039 4.4851C9.29764 4.83445 8.98301 5.07724 8.6187 5.12231L8.49561 5.12988H3.49561C2.94332 5.12988 2.49561 4.68217 2.49561 4.12988C2.49561 3.61705 2.88165 3.19438 3.37898 3.13661L3.49561 3.12988H7.80561L8.2658 1.91945C8.54114 1.19488 9.20767 0.699484 9.97053 0.636652L10.1354 0.629883H14.8558Z" fill="#FDFDFD"/>
</g>
<defs>
<clipPath id="clip0">
<rect width="24" height="24" fill="white" transform="translate(0.495605 0.129883)"/>
</clipPath>
</defs>
</svg>
