<svg width="25" height="25" viewBox="0 0 25 25" fill="none" xmlns="http://www.w3.org/2000/svg">
<path fill-rule="evenodd" clip-rule="evenodd" d="M12.5264 1.18701C6.06413 1.18701 1.52637 5.42683 1.52637 11.1344L1.53159 11.4643C1.60805 13.8749 2.52245 16.0889 4.1339 17.7865L4.19937 17.854L3.53867 22.0306L3.52706 22.14C3.48461 22.9311 4.36496 23.4717 5.06036 23.0325L8.90837 20.602L9.30361 20.7063C10.3174 20.9549 11.3964 21.0817 12.5264 21.0817C18.9886 21.0817 23.5264 16.8419 23.5264 11.1344C23.5264 5.42683 18.9886 1.18701 12.5264 1.18701ZM12.5264 3.18701C17.9132 3.18701 21.5264 6.5629 21.5264 11.1344C21.5264 15.7059 17.9132 19.0817 12.5264 19.0817C11.2804 19.0817 10.1209 18.9041 9.07057 18.5618L8.94795 18.5303C8.70046 18.4831 8.44243 18.531 8.22679 18.6672L5.85837 20.162L6.25599 17.6575C6.3083 17.3272 6.19198 16.9925 5.94603 16.7658C4.38581 15.3278 3.52637 13.3383 3.52637 11.1344C3.52637 6.5629 7.13948 3.18701 12.5264 3.18701Z" fill="#868686"/>
<path fill-rule="evenodd" clip-rule="evenodd" d="M12.5264 1.18701C6.06413 1.18701 1.52637 5.42683 1.52637 11.1344L1.53159 11.4643C1.60805 13.8749 2.52245 16.0889 4.1339 17.7865L4.19937 17.854L3.53867 22.0306L3.52706 22.14C3.48461 22.9311 4.36496 23.4717 5.06036 23.0325L8.90837 20.602L9.30361 20.7063C10.3174 20.9549 11.3964 21.0817 12.5264 21.0817C18.9886 21.0817 23.5264 16.8419 23.5264 11.1344C23.5264 5.42683 18.9886 1.18701 12.5264 1.18701ZM12.5264 3.18701C17.9132 3.18701 21.5264 6.5629 21.5264 11.1344C21.5264 15.7059 17.9132 19.0817 12.5264 19.0817C11.2804 19.0817 10.1209 18.9041 9.07057 18.5618L8.94795 18.5303C8.70046 18.4831 8.44243 18.531 8.22679 18.6672L5.85837 20.162L6.25599 17.6575C6.3083 17.3272 6.19198 16.9925 5.94603 16.7658C4.38581 15.3278 3.52637 13.3383 3.52637 11.1344C3.52637 6.5629 7.13948 3.18701 12.5264 3.18701Z" fill="#481380"/>
</svg>
