<svg width="25" height="25" viewBox="0 0 25 25" fill="none" xmlns="http://www.w3.org/2000/svg">
<path fill-rule="evenodd" clip-rule="evenodd" d="M12.5078 1.18695C6.04557 1.18695 1.50781 5.42677 1.50781 11.1343L1.51303 11.4642C1.5895 13.8748 2.50389 16.0889 4.11535 17.7865L4.18081 17.854L3.52012 22.0306L3.5085 22.1399C3.46606 22.931 4.3464 23.4716 5.04181 23.0324L8.88981 20.602L9.28506 20.7062C10.2988 20.9548 11.3778 21.0817 12.5078 21.0817C18.9701 21.0817 23.5078 16.8419 23.5078 11.1343C23.5078 5.42677 18.9701 1.18695 12.5078 1.18695ZM12.5078 3.18695C17.8947 3.18695 21.5078 6.56284 21.5078 11.1343C21.5078 15.7058 17.8947 19.0817 12.5078 19.0817C11.2619 19.0817 10.1023 18.904 9.05202 18.5618L8.9294 18.5303C8.68191 18.4831 8.42388 18.5309 8.20823 18.6671L5.83981 20.162L6.23744 17.6575C6.28975 17.3271 6.17342 16.9925 5.92748 16.7658C4.36726 15.3277 3.50781 13.3382 3.50781 11.1343C3.50781 6.56284 7.12093 3.18695 12.5078 3.18695Z" fill="#868686"/>
</svg>
