<svg width="24" height="24" viewBox="0 0 24 24" fill="none" xmlns="http://www.w3.org/2000/svg">
<path fill-rule="evenodd" clip-rule="evenodd" d="M5.54259 4.13866L5.63679 4.22185L12.0008 10.585L18.3647 4.22185C18.7552 3.83132 19.3884 3.83132 19.7789 4.22185C20.1394 4.58233 20.1671 5.14956 19.8621 5.54185L19.7789 5.63606L13.4158 12L19.7789 18.364C20.1695 18.7545 20.1695 19.3877 19.7789 19.7782C19.4184 20.1387 18.8512 20.1664 18.4589 19.8614L18.3647 19.7782L12.0008 13.415L5.63679 19.7782C5.24627 20.1687 4.61311 20.1687 4.22258 19.7782C3.8621 19.4177 3.83437 18.8505 4.13939 18.4582L4.22258 18.364L10.5858 12L4.22258 5.63606C3.83206 5.24554 3.83206 4.61237 4.22258 4.22185C4.55302 3.8914 5.05719 3.84057 5.44109 4.06934L5.54259 4.13866Z" fill="#272727"/>
</svg>
