<svg width="24" height="25" viewBox="0 0 24 25" fill="none" xmlns="http://www.w3.org/2000/svg">
<path fill-rule="evenodd" clip-rule="evenodd" d="M13.402 4.3449C13.7925 3.95437 14.4257 3.95437 14.8162 4.3449C15.1767 4.70538 15.2044 5.27261 14.8994 5.6649L14.8162 5.75911L3.126 17.449L3.019 21.032L6.602 20.925L18.2929 9.2358C18.6534 8.87531 19.2206 8.84758 19.6129 9.15261L19.7071 9.2358C20.0676 9.59628 20.0953 10.1635 19.7903 10.5558L19.7071 10.65L7.73717 22.6199C7.58699 22.7701 7.39376 22.8678 7.1861 22.9006L7.06 22.9124L2.4185 23.0514C1.70313 23.0728 1.09894 22.5448 1.01045 21.8234L1 21.686L1.00045 21.6335L1.13961 16.992C1.14597 16.7797 1.21968 16.5761 1.34835 16.4099L1.43205 16.3148L13.402 4.3449Z" fill="#272727"/>
<path fill-rule="evenodd" clip-rule="evenodd" d="M15.1466 2.60018L13.9998 3.7469C13.2188 4.52795 13.2188 5.79428 13.9998 6.57533L18.1836 10.7591C18.5742 11.1496 19.2073 11.1496 19.5979 10.7591L21.4516 8.90537C22.4333 7.92366 22.6132 6.39659 21.8864 5.21365L21.7817 5.04315C21.0877 3.9136 20.1375 2.9634 19.0079 2.26952L18.8381 2.16526C17.6552 1.43862 16.1282 1.61852 15.1466 2.60018ZM17.7913 3.86942L17.961 3.97368C18.823 4.50314 19.5481 5.22819 20.0776 6.09009L20.1823 6.26058L20.2409 6.37074C20.4115 6.74594 20.3349 7.19367 20.0374 7.49116L18.8908 8.63702L15.4141 5.16111L16.5608 4.01439C16.888 3.68717 17.397 3.6272 17.7913 3.86942Z" fill="#272727"/>
</svg>
