<svg width="25" height="25" viewBox="0 0 25 25" fill="none" xmlns="http://www.w3.org/2000/svg">
<g clip-path="url(#clip0)">
<path fill-rule="evenodd" clip-rule="evenodd" d="M10.8213 13.6124C11.3722 13.5736 11.8502 13.9889 11.8889 14.5398C11.9277 15.0907 11.5124 15.5687 10.9615 15.6074C6.95909 15.8888 4.50676 17.647 3.44629 21.002L3.38984 21.187H22.1238C22.6367 21.187 23.0593 21.5731 23.1171 22.0704L23.1238 22.187C23.1238 22.6999 22.7378 23.1225 22.2405 23.1803L22.1238 23.187H2.12384C1.4977 23.187 1.02558 22.6181 1.14097 22.0027C2.1077 16.8468 5.41022 13.9927 10.8213 13.6124Z" fill="#868686"/>
<path fill-rule="evenodd" clip-rule="evenodd" d="M10.8213 13.6124C11.3722 13.5736 11.8502 13.9889 11.8889 14.5398C11.9277 15.0907 11.5124 15.5687 10.9615 15.6074C6.95909 15.8888 4.50676 17.647 3.44629 21.002L3.38984 21.187H22.1238C22.6367 21.187 23.0593 21.5731 23.1171 22.0704L23.1238 22.187C23.1238 22.6999 22.7378 23.1225 22.2405 23.1803L22.1238 23.187H2.12384C1.4977 23.187 1.02558 22.6181 1.14097 22.0027C2.1077 16.8468 5.41022 13.9927 10.8213 13.6124Z" fill="#481380"/>
<path fill-rule="evenodd" clip-rule="evenodd" d="M12.124 1.18701C14.9815 1.18701 17.4816 3.11 18.4354 5.91854C18.613 6.44149 18.333 7.0094 17.81 7.18699C17.2871 7.36459 16.7192 7.08462 16.5416 6.56167C15.855 4.53981 14.0962 3.18701 12.124 3.18701C9.539 3.18701 7.40967 5.49378 7.40967 8.37749C7.40967 10.8827 9.03147 13.0007 11.2128 13.4712C11.7526 13.5876 12.0959 14.1196 11.9795 14.6595C11.863 15.1994 11.331 15.5426 10.7911 15.4262C7.66729 14.7524 5.40967 11.8041 5.40967 8.37749C5.40967 4.42338 8.39709 1.18701 12.124 1.18701Z" fill="#868686"/>
<path fill-rule="evenodd" clip-rule="evenodd" d="M12.124 1.18701C14.9815 1.18701 17.4816 3.11 18.4354 5.91854C18.613 6.44149 18.333 7.0094 17.81 7.18699C17.2871 7.36459 16.7192 7.08462 16.5416 6.56167C15.855 4.53981 14.0962 3.18701 12.124 3.18701C9.539 3.18701 7.40967 5.49378 7.40967 8.37749C7.40967 10.8827 9.03147 13.0007 11.2128 13.4712C11.7526 13.5876 12.0959 14.1196 11.9795 14.6595C11.863 15.1994 11.331 15.5426 10.7911 15.4262C7.66729 14.7524 5.40967 11.8041 5.40967 8.37749C5.40967 4.42338 8.39709 1.18701 12.124 1.18701Z" fill="#481380"/>
<path fill-rule="evenodd" clip-rule="evenodd" d="M19.124 9.43701C19.6369 9.43701 20.0595 9.82305 20.1173 10.3204L20.124 10.437V13.437H23.124C23.6763 13.437 24.124 13.8847 24.124 14.437C24.124 14.9498 23.738 15.3725 23.2406 15.4303L23.124 15.437H20.124V18.437C20.124 18.9893 19.6763 19.437 19.124 19.437C18.6112 19.437 18.1885 19.051 18.1308 18.5536L18.124 18.437V15.437H15.124C14.5717 15.437 14.124 14.9893 14.124 14.437C14.124 13.9242 14.5101 13.5015 15.0074 13.4437L15.124 13.437H18.124V10.437C18.124 9.88473 18.5717 9.43701 19.124 9.43701Z" fill="#868686"/>
<path fill-rule="evenodd" clip-rule="evenodd" d="M19.124 9.43701C19.6369 9.43701 20.0595 9.82305 20.1173 10.3204L20.124 10.437V13.437H23.124C23.6763 13.437 24.124 13.8847 24.124 14.437C24.124 14.9498 23.738 15.3725 23.2406 15.4303L23.124 15.437H20.124V18.437C20.124 18.9893 19.6763 19.437 19.124 19.437C18.6112 19.437 18.1885 19.051 18.1308 18.5536L18.124 18.437V15.437H15.124C14.5717 15.437 14.124 14.9893 14.124 14.437C14.124 13.9242 14.5101 13.5015 15.0074 13.4437L15.124 13.437H18.124V10.437C18.124 9.88473 18.5717 9.43701 19.124 9.43701Z" fill="#481380"/>
</g>
<defs>
<clipPath id="clip0">
<rect width="24" height="24" fill="white" transform="translate(0.124023 0.187012)"/>
</clipPath>
</defs>
</svg>
