<svg width="24" height="25" viewBox="0 0 24 25" fill="none" xmlns="http://www.w3.org/2000/svg">
<g clip-path="url(#clip0)">
<g opacity="0.5">
<path fill-rule="evenodd" clip-rule="evenodd" d="M7 16.205C9.20914 16.205 11 17.9959 11 20.205C11 22.4142 9.20914 24.205 7 24.205C4.79086 24.205 3 22.4142 3 20.205C3 17.9959 4.79086 16.205 7 16.205ZM7 18.205C5.89543 18.205 5 19.1004 5 20.205C5 21.3096 5.89543 22.205 7 22.205C8.10457 22.205 9 21.3096 9 20.205C9 19.1004 8.10457 18.205 7 18.205ZM17 8.70502C19.2091 8.70502 21 10.4959 21 12.705C21 14.9142 19.2091 16.705 17 16.705C14.7909 16.705 13 14.9142 13 12.705C13 10.4959 14.7909 8.70502 17 8.70502ZM17 10.705C15.8954 10.705 15 11.6004 15 12.705C15 13.8096 15.8954 14.705 17 14.705C18.1046 14.705 19 13.8096 19 12.705C19 11.6004 18.1046 10.705 17 10.705ZM7 1.20502C9.20914 1.20502 11 2.99588 11 5.20502C11 7.41416 9.20914 9.20502 7 9.20502C4.79086 9.20502 3 7.41416 3 5.20502C3 2.99588 4.79086 1.20502 7 1.20502ZM7 3.20502C5.89543 3.20502 5 4.10045 5 5.20502C5 6.30959 5.89543 7.20502 7 7.20502C8.10457 7.20502 9 6.30959 9 5.20502C9 4.10045 8.10457 3.20502 7 3.20502Z" fill="#272727"/>
<path fill-rule="evenodd" clip-rule="evenodd" d="M4 4.20502C4.55228 4.20502 5 4.65273 5 5.20502C5 5.71785 4.61396 6.14052 4.11662 6.19829L4 6.20502H2C1.44772 6.20502 1 5.7573 1 5.20502C1 4.69218 1.38604 4.26951 1.88338 4.21174L2 4.20502H4ZM22 4.20502C22.5523 4.20502 23 4.65273 23 5.20502C23 5.71785 22.614 6.14052 22.1166 6.19829L22 6.20502H9.99685C9.44457 6.20502 8.99685 5.7573 8.99685 5.20502C8.99685 4.69218 9.38289 4.26951 9.88023 4.21174L9.99685 4.20502H22Z" fill="#272727"/>
<path fill-rule="evenodd" clip-rule="evenodd" d="M4 19.205C4.55228 19.205 5 19.6527 5 20.205C5 20.7179 4.61396 21.1405 4.11662 21.1983L4 21.205H2C1.44772 21.205 1 20.7573 1 20.205C1 19.6922 1.38604 19.2695 1.88338 19.2117L2 19.205H4ZM22 19.205C22.5523 19.205 23 19.6527 23 20.205C23 20.7179 22.614 21.1405 22.1166 21.1983L22 21.205H9.99685C9.44457 21.205 8.99685 20.7573 8.99685 20.205C8.99685 19.6922 9.38289 19.2695 9.88023 19.2117L9.99685 19.205H22Z" fill="#272727"/>
<path fill-rule="evenodd" clip-rule="evenodd" d="M22 11.705C22.5523 11.705 23 12.1527 23 12.705C23 13.2179 22.614 13.6405 22.1166 13.6983L22 13.705H20C19.4477 13.705 19 13.2573 19 12.705C19 12.1922 19.386 11.7695 19.8834 11.7117L20 11.705H22ZM14.0031 11.705C14.5554 11.705 15.0031 12.1527 15.0031 12.705C15.0031 13.2179 14.6171 13.6405 14.1198 13.6983L14.0031 13.705H2C1.44772 13.705 1 13.2573 1 12.705C1 12.1922 1.38604 11.7695 1.88338 11.7117L2 11.705H14.0031Z" fill="#272727"/>
</g>
</g>
<defs>
<clipPath id="clip0">
<rect width="24" height="24" fill="white" transform="translate(0 0.705017)"/>
</clipPath>
</defs>
</svg>
