<svg width="24" height="24" viewBox="0 0 24 24" fill="none" xmlns="http://www.w3.org/2000/svg">
<path fill-rule="evenodd" clip-rule="evenodd" d="M7 15.5C9.20914 15.5 11 17.2909 11 19.5C11 21.7091 9.20914 23.5 7 23.5C4.79086 23.5 3 21.7091 3 19.5C3 17.2909 4.79086 15.5 7 15.5ZM7 17.5C5.89543 17.5 5 18.3954 5 19.5C5 20.6046 5.89543 21.5 7 21.5C8.10457 21.5 9 20.6046 9 19.5C9 18.3954 8.10457 17.5 7 17.5ZM17 8C19.2091 8 21 9.79086 21 12C21 14.2091 19.2091 16 17 16C14.7909 16 13 14.2091 13 12C13 9.79086 14.7909 8 17 8ZM17 10C15.8954 10 15 10.8954 15 12C15 13.1046 15.8954 14 17 14C18.1046 14 19 13.1046 19 12C19 10.8954 18.1046 10 17 10ZM7 0.5C9.20914 0.5 11 2.29086 11 4.5C11 6.70914 9.20914 8.5 7 8.5C4.79086 8.5 3 6.70914 3 4.5C3 2.29086 4.79086 0.5 7 0.5ZM7 2.5C5.89543 2.5 5 3.39543 5 4.5C5 5.60457 5.89543 6.5 7 6.5C8.10457 6.5 9 5.60457 9 4.5C9 3.39543 8.10457 2.5 7 2.5Z" fill="#272727"/>
<path fill-rule="evenodd" clip-rule="evenodd" d="M4 3.5C4.55228 3.5 5 3.94772 5 4.5C5 5.01284 4.61396 5.43551 4.11662 5.49327L4 5.5H2C1.44772 5.5 1 5.05228 1 4.5C1 3.98716 1.38604 3.56449 1.88338 3.50673L2 3.5H4ZM22 3.5C22.5523 3.5 23 3.94772 23 4.5C23 5.01284 22.614 5.43551 22.1166 5.49327L22 5.5H9.99685C9.44457 5.5 8.99685 5.05228 8.99685 4.5C8.99685 3.98716 9.38289 3.56449 9.88023 3.50673L9.99685 3.5H22Z" fill="#272727"/>
<path fill-rule="evenodd" clip-rule="evenodd" d="M4 18.5C4.55228 18.5 5 18.9477 5 19.5C5 20.0128 4.61396 20.4355 4.11662 20.4933L4 20.5H2C1.44772 20.5 1 20.0523 1 19.5C1 18.9872 1.38604 18.5645 1.88338 18.5067L2 18.5H4ZM22 18.5C22.5523 18.5 23 18.9477 23 19.5C23 20.0128 22.614 20.4355 22.1166 20.4933L22 20.5H9.99685C9.44457 20.5 8.99685 20.0523 8.99685 19.5C8.99685 18.9872 9.38289 18.5645 9.88023 18.5067L9.99685 18.5H22Z" fill="#272727"/>
<path fill-rule="evenodd" clip-rule="evenodd" d="M22 11C22.5523 11 23 11.4477 23 12C23 12.5128 22.614 12.9355 22.1166 12.9933L22 13H20C19.4477 13 19 12.5523 19 12C19 11.4872 19.386 11.0645 19.8834 11.0067L20 11H22ZM14.0031 11C14.5554 11 15.0031 11.4477 15.0031 12C15.0031 12.5128 14.6171 12.9355 14.1198 12.9933L14.0031 13H2C1.44772 13 1 12.5523 1 12C1 11.4872 1.38604 11.0645 1.88338 11.0067L2 11H14.0031Z" fill="#272727"/>
</svg>
