<svg width="25" height="25" viewBox="0 0 25 25" fill="none" xmlns="http://www.w3.org/2000/svg">
<path fill-rule="evenodd" clip-rule="evenodd" d="M3.54432 1.64984C2.99611 1.65552 2.55469 2.10155 2.55469 2.64979V13.6398C2.55469 14.1921 3.0024 14.6398 3.55469 14.6398H10.3188C11.0516 14.6398 11.4638 14.8861 12.026 15.5858L12.4756 16.1751C13.2279 17.1578 13.8597 17.6299 14.8966 17.6299H22.1523C22.8971 17.6299 23.5547 17.1051 23.5547 16.2871V6.09628C23.5547 5.3488 22.9633 4.63376 22.1523 4.63376H14.8966C14.6758 4.63376 14.5011 4.52308 14.1697 4.12467L13.6908 3.51858C12.7106 2.2879 11.7684 1.67166 10.2269 1.64989L9.25486 1.63878C7.58761 1.62396 5.68421 1.62766 3.54432 1.64984ZM10.1986 3.64969C11.0315 3.66145 11.483 3.95676 12.1263 4.76457L12.5012 5.24271L12.649 5.42348C13.3334 6.23723 13.9507 6.63376 14.8966 6.63376L21.5547 6.63288V15.6299H14.8966C14.6762 15.6299 14.5024 15.5137 14.1611 15.0844L13.737 14.527L13.5759 14.3221C12.6648 13.1948 11.7656 12.6398 10.3188 12.6398L4.55469 12.6389V3.63988L6.13269 3.63163C7.63147 3.62654 8.98683 3.63257 10.1986 3.64969Z" fill="#FDFDFD"/>
<path fill-rule="evenodd" clip-rule="evenodd" d="M3.55469 1.62988C4.06752 1.62988 4.49019 2.01592 4.54796 2.51326L4.55469 2.62988V22.6031C4.55469 23.1553 4.10697 23.6031 3.55469 23.6031C3.04185 23.6031 2.61918 23.217 2.56142 22.7197L2.55469 22.6031V2.62988C2.55469 2.0776 3.0024 1.62988 3.55469 1.62988Z" fill="#FDFDFD"/>
</svg>
