<svg width="12" height="12" viewBox="0 0 12 12" fill="none" xmlns="http://www.w3.org/2000/svg">
<path fill-rule="evenodd" clip-rule="evenodd" d="M1.48029 0.160844C1.19313 0.163821 0.961914 0.39745 0.961914 0.684622V6.44128C0.961914 6.73057 1.19643 6.96508 1.48572 6.96508H5.02878C5.41265 6.96508 5.62857 7.0941 5.92303 7.46057L6.15856 7.76925C6.5526 8.28399 6.88354 8.53129 7.4267 8.53129H11.2273C11.6174 8.53129 11.9618 8.2564 11.9618 7.82792V2.48992C11.9618 2.09838 11.6521 1.72384 11.2273 1.72384H7.4267C7.31104 1.72384 7.2195 1.66587 7.04592 1.45718L6.79508 1.1397C6.28166 0.495062 5.78814 0.172276 4.98065 0.160869L4.4715 0.155049C3.59819 0.147289 2.60118 0.149226 1.48029 0.160844Z" fill="#D05F5F"/>
<path fill-rule="evenodd" clip-rule="evenodd" d="M1.48572 0.150391C1.75435 0.150391 1.97574 0.352601 2.006 0.61311L2.00953 0.674197V11.1363C2.00953 11.4256 1.77501 11.6601 1.48572 11.6601C1.21709 11.6601 0.995696 11.4579 0.965438 11.1974L0.961914 11.1363V0.674197C0.961914 0.384907 1.19643 0.150391 1.48572 0.150391Z" fill="#D05F5F"/>
</svg>
