<svg width="11" height="12" viewBox="0 0 11 12" fill="none" xmlns="http://www.w3.org/2000/svg">
<path fill-rule="evenodd" clip-rule="evenodd" d="M5.11289 0.135376L5.18121 0.135426C7.90688 0.174039 10.1436 2.21427 10.1436 4.71018C10.1436 6.47234 9.16413 7.99726 7.46345 9.4723C7.17652 9.72116 6.88133 9.95862 6.54401 10.2156L5.44774 11.0313C5.2682 11.169 5.01859 11.1689 4.83911 11.0312L4.85422 11.0435C4.85236 11.0462 4.39971 10.7209 4.11085 10.4975C3.57393 10.0822 3.04181 9.62517 2.54286 9.13254C1.11111 7.71889 0.219793 6.2936 0.148213 4.89106L0.143743 4.74606L0.143555 4.71018C0.143555 2.21434 2.38024 0.174137 5.11289 0.135376ZM5.14256 1.13489L5.11999 1.13536C2.96214 1.16601 1.21335 2.72319 1.1456 4.59739L1.14369 4.73559C1.15543 5.85322 1.93546 7.12754 3.24546 8.42098C3.71334 8.88294 4.21562 9.31433 4.72269 9.70656L4.92211 9.85768L5.13606 10.0155L5.73729 9.57158C6.14621 9.26569 6.4846 8.99758 6.80824 8.71689C8.31136 7.41319 9.14356 6.11751 9.14356 4.71021C9.14356 2.82374 7.4371 1.23017 5.3027 1.13906L5.14256 1.13489ZM5.14355 2.63452C6.24812 2.63452 7.14355 3.52995 7.14355 4.63452C7.14355 5.73909 6.24812 6.63452 5.14355 6.63452C4.03899 6.63452 3.14355 5.73909 3.14355 4.63452C3.14355 3.52995 4.03899 2.63452 5.14355 2.63452ZM5.14355 3.63452C4.59127 3.63452 4.14355 4.08224 4.14355 4.63452C4.14355 5.18681 4.59127 5.63452 5.14355 5.63452C5.69584 5.63452 6.14355 5.18681 6.14355 4.63452C6.14355 4.08224 5.69584 3.63452 5.14355 3.63452Z" fill="#272727"/>
</svg>
