<svg width="10" height="12" viewBox="0 0 10 12" fill="none" xmlns="http://www.w3.org/2000/svg">
<path fill-rule="evenodd" clip-rule="evenodd" d="M4.96933 0.681885L5.03765 0.681935C7.76333 0.720547 10 2.76078 10 5.25669C10 7.01885 9.02057 8.54377 7.31989 10.0188C7.03296 10.2677 6.73778 10.5051 6.40046 10.7621L5.30419 11.5778C5.12465 11.7155 4.87504 11.7154 4.69555 11.5777L4.71067 11.59C4.70881 11.5928 4.25615 11.2675 3.96729 11.044C3.43038 10.6287 2.89825 10.1717 2.39931 9.67904C0.967559 8.2654 0.0762386 6.84011 0.00465791 5.43757L0.00018862 5.29257L0 5.25669C0 2.76085 2.23668 0.720646 4.96933 0.681885ZM4.999 1.6814L4.97644 1.68187C2.81858 1.71252 1.06979 3.2697 1.00204 5.1439L1.00014 5.2821C1.01188 6.39973 1.79191 7.67405 3.10191 8.96749C3.56978 9.42945 4.07207 9.86084 4.57914 10.2531L4.77856 10.4042L4.9925 10.562L5.59374 10.1181C6.00266 9.8122 6.34105 9.54409 6.66468 9.2634C8.1678 7.9597 9 6.66402 9 5.25672C9 3.37025 7.29354 1.77668 5.15914 1.68557L4.999 1.6814ZM5 3.18103C6.10457 3.18103 7 4.07646 7 5.18103C7 6.2856 6.10457 7.18103 5 7.18103C3.89543 7.18103 3 6.2856 3 5.18103C3 4.07646 3.89543 3.18103 5 3.18103ZM5 4.18103C4.44772 4.18103 4 4.62875 4 5.18103C4 5.73331 4.44772 6.18103 5 6.18103C5.55228 6.18103 6 5.73331 6 5.18103C6 4.62875 5.55228 4.18103 5 4.18103Z" fill="#868686"/>
</svg>
