<svg width="14" height="14" viewBox="0 0 14 14" fill="none" xmlns="http://www.w3.org/2000/svg">
<g clip-path="url(#clip0)">
<path d="M3.78088 7.20542C3.78088 6.56133 3.95834 5.95798 4.26663 5.44135V3.24994H2.07522C1.20546 4.37952 0.734009 5.75617 0.734009 7.20542C0.734009 8.65466 1.20546 10.0313 2.07522 11.1609H4.26663V8.96948C3.95834 8.45286 3.78088 7.8495 3.78088 7.20542Z" fill="#FBBD00"/>
<path d="M7.23401 10.6586L5.71057 12.182L7.23401 13.7055C8.68328 13.7055 10.0599 13.234 11.1895 12.3642V10.1752H9.00041C8.47927 10.4846 7.87337 10.6586 7.23401 10.6586Z" fill="#0F9D58"/>
<path d="M4.26664 8.96954L2.07522 11.161C2.24742 11.3846 2.43493 11.5988 2.63783 11.8017C3.86552 13.0294 5.4978 13.7055 7.23401 13.7055V10.6586C5.97403 10.6586 4.86971 9.98017 4.26664 8.96954Z" fill="#31AA52"/>
<path d="M13.734 7.20546C13.734 6.81 13.6982 6.4138 13.6276 6.02792L13.5704 5.71564H7.23401V8.76251H10.3178C10.0183 9.3582 9.55786 9.8442 9.00038 10.1752L11.1895 12.3643C11.4131 12.1921 11.6273 12.0046 11.8302 11.8017C13.0579 10.574 13.734 8.94167 13.734 7.20546Z" fill="#3C79E6"/>
<path d="M9.67575 4.7637L9.94504 5.033L12.0995 2.87855L11.8302 2.60926C10.6025 1.38157 8.97025 0.705444 7.23401 0.705444L5.71057 2.22888L7.23401 3.75232C8.15635 3.75232 9.02351 4.1115 9.67575 4.7637Z" fill="#CF2D48"/>
<path d="M7.23402 3.75232V0.705444C5.49781 0.705444 3.86552 1.38157 2.63781 2.60923C2.43491 2.81213 2.2474 3.0263 2.0752 3.24997L4.26662 5.44138C4.86972 4.43076 5.97403 3.75232 7.23402 3.75232Z" fill="#EB4132"/>
</g>
<defs>
<clipPath id="clip0">
<rect width="13" height="13" fill="white" transform="translate(0.734009 0.705444)"/>
</clipPath>
</defs>
</svg>
