<svg width="25" height="25" viewBox="0 0 25 25" fill="none" xmlns="http://www.w3.org/2000/svg">
<g clip-path="url(#clip0)">
<path fill-rule="evenodd" clip-rule="evenodd" d="M12.1998 4.11311L12.1065 4.23411L12.0826 4.20307C9.77727 1.1683 4.45268 0.540678 1.59611 4.34766C-2.43211 9.71751 1.96761 18.0954 11.6145 22.5794C11.9233 22.723 12.2881 22.723 12.5969 22.5794C22.2434 18.0954 26.643 9.71745 22.6149 4.34776C19.795 0.589409 14.5437 1.14423 12.1998 4.11311ZM21.0563 5.65158C23.8923 9.77924 20.408 16.5299 12.3754 20.5697L12.1055 20.702L11.8359 20.5697C3.67751 16.4667 0.21079 9.56766 3.29219 5.45998C5.74636 2.18928 10.8296 3.76148 11.0012 7.34219L11.006 7.55207L11.0168 7.68508C11.1797 8.83871 13.0642 8.81909 13.1986 7.66238L13.2057 7.50548L13.21 7.35896C13.3648 3.74758 18.4665 2.19157 20.9188 5.46004L21.0563 5.65158Z" fill="#868686"/>
<path fill-rule="evenodd" clip-rule="evenodd" d="M12.1998 4.11311L12.1065 4.23411L12.0826 4.20307C9.77727 1.1683 4.45268 0.540678 1.59611 4.34766C-2.43211 9.71751 1.96761 18.0954 11.6145 22.5794C11.9233 22.723 12.2881 22.723 12.5969 22.5794C22.2434 18.0954 26.643 9.71745 22.6149 4.34776C19.795 0.589409 14.5437 1.14423 12.1998 4.11311ZM21.0563 5.65158C23.8923 9.77924 20.408 16.5299 12.3754 20.5697L12.1055 20.702L11.8359 20.5697C3.67751 16.4667 0.21079 9.56766 3.29219 5.45998C5.74636 2.18928 10.8296 3.76148 11.0012 7.34219L11.006 7.55207L11.0168 7.68508C11.1797 8.83871 13.0642 8.81909 13.1986 7.66238L13.2057 7.50548L13.21 7.35896C13.3648 3.74758 18.4665 2.19157 20.9188 5.46004L21.0563 5.65158Z" fill="#481380"/>
</g>
<defs>
<clipPath id="clip0">
<rect width="24" height="24" fill="white" transform="translate(0.105469 0.187012)"/>
</clipPath>
</defs>
</svg>
