<svg width="25" height="25" viewBox="0 0 25 25" fill="none" xmlns="http://www.w3.org/2000/svg">
<g clip-path="url(#clip0)">
<path fill-rule="evenodd" clip-rule="evenodd" d="M12.7003 4.11304L12.607 4.23405L12.5831 4.20301C10.2778 1.16824 4.95317 0.540617 2.0966 4.3476C-1.93162 9.71745 2.4681 18.0954 12.115 22.5794C12.4238 22.7229 12.7886 22.7229 13.0974 22.5794C22.7439 18.0953 27.1435 9.71739 23.1154 4.3477C20.2955 0.589348 15.0441 1.14417 12.7003 4.11304ZM21.5568 5.65152C24.3928 9.77918 20.9085 16.5298 12.8759 20.5696L12.6059 20.702L12.3364 20.5696C4.178 16.4667 0.711278 9.5676 3.79268 5.45992C6.24685 2.18922 11.3301 3.76142 11.5017 7.34213L11.5064 7.55201L11.5173 7.68502C11.6802 8.83864 13.5647 8.81903 13.6991 7.66232L13.7062 7.50542L13.7104 7.3589C13.8653 3.74752 18.967 2.19151 21.4193 5.45998L21.5568 5.65152Z" fill="#868686"/>
</g>
<defs>
<clipPath id="clip0">
<rect width="24" height="24" fill="white" transform="translate(0.605957 0.186951)"/>
</clipPath>
</defs>
</svg>
