<svg width="23" height="25" viewBox="0 0 23 25" fill="none" xmlns="http://www.w3.org/2000/svg">
<path d="M22.4692 12.165C22.3941 12.0003 22.2719 11.8668 22.1211 11.7847L1.96316 0.773436C1.58015 0.564293 1.11447 0.734029 0.923079 1.15251C0.869247 1.27019 0.841263 1.39997 0.841309 1.53154V23.5542C0.841127 24.022 1.18806 24.4014 1.61627 24.4016C1.7367 24.4017 1.85549 24.3711 1.9632 24.3123L22.1211 13.3009C22.5044 13.0922 22.6602 12.5837 22.4692 12.165Z" fill="#EFB1FF"/>
<path d="M22.4692 12.165C22.3941 12.0003 22.2719 11.8668 22.1211 11.7847L1.96316 0.773436C1.58015 0.564293 1.11447 0.734029 0.923079 1.15251C0.869247 1.27019 0.841263 1.39997 0.841309 1.53154V23.5542C0.841127 24.022 1.18806 24.4014 1.61627 24.4016C1.7367 24.4017 1.85549 24.3711 1.9632 24.3123L22.1211 13.3009C22.5044 13.0922 22.6602 12.5837 22.4692 12.165Z" fill="url(#paint0_linear)" fill-opacity="0.3"/>
<defs>
<linearGradient id="paint0_linear" x1="0.841309" y1="24.4016" x2="19.5132" y2="-11.5342" gradientUnits="userSpaceOnUse">
<stop stop-color="#481380"/>
<stop offset="0.975423" stop-color="#FFE2FF"/>
</linearGradient>
</defs>
</svg>
