<svg width="37" height="41" viewBox="0 0 37 41" fill="none" xmlns="http://www.w3.org/2000/svg">
<path fill-rule="evenodd" clip-rule="evenodd" d="M0.435279 1.84999C0.149497 2.37573 0 2.96537 0 3.56419V36.8681C0 38.8264 1.57049 40.4314 3.53008 40.4314C4.13686 40.4314 4.73286 40.2736 5.26084 39.9738L34.5882 23.3219C36.2791 22.3617 36.8807 20.21 35.9522 18.502C35.6357 17.9197 35.1637 17.4372 34.5882 17.1105L5.26084 0.458502C3.54426 -0.516168 1.37755 0.116533 0.435279 1.84999Z" fill="#FDFDFD"/>
<path fill-rule="evenodd" clip-rule="evenodd" d="M0.435279 1.84999C0.149497 2.37573 0 2.96537 0 3.56419V36.8681C0 38.8264 1.57049 40.4314 3.53008 40.4314C4.13686 40.4314 4.73286 40.2736 5.26084 39.9738L34.5882 23.3219C36.2791 22.3617 36.8807 20.21 35.9522 18.502C35.6357 17.9197 35.1637 17.4372 34.5882 17.1105L5.26084 0.458502C3.54426 -0.516168 1.37755 0.116533 0.435279 1.84999Z" fill="url(#paint0_linear)" fill-opacity="0.7"/>
<defs>
<linearGradient id="paint0_linear" x1="-13.7142" y1="46.3567" x2="42.4106" y2="0.381835" gradientUnits="userSpaceOnUse">
<stop stop-color="#742DD2"/>
<stop offset="0.832932" stop-color="#FFE2FF"/>
</linearGradient>
</defs>
</svg>
