<svg width="50" height="51" viewBox="0 0 50 51" fill="none" xmlns="http://www.w3.org/2000/svg">
<path fill-rule="evenodd" clip-rule="evenodd" d="M17.361 11.6945L0.556295 26.8187C-0.185432 27.4862 -0.185432 28.6493 0.556295 29.3169L17.361 44.4411C18.4424 45.4144 20.1656 44.6469 20.1656 43.192V12.9435C20.1656 11.4886 18.4424 10.7212 17.361 11.6945Z" fill="#FDFDFD"/>
<path fill-rule="evenodd" clip-rule="evenodd" d="M17.361 11.6945L0.556295 26.8187C-0.185432 27.4862 -0.185432 28.6493 0.556295 29.3169L17.361 44.4411C18.4424 45.4144 20.1656 44.6469 20.1656 43.192V12.9435C20.1656 11.4886 18.4424 10.7212 17.361 11.6945Z" fill="url(#paint0_linear)" fill-opacity="0.7"/>
<path fill-rule="evenodd" clip-rule="evenodd" d="M34.1657 11.6945L17.361 26.8187C16.6193 27.4862 16.6193 28.6493 17.361 29.3169L34.1657 44.4411C35.2471 45.4144 36.9703 44.6469 36.9703 43.192V12.9435C36.9703 11.4886 35.2471 10.7212 34.1657 11.6945Z" fill="#FDFDFD"/>
<path fill-rule="evenodd" clip-rule="evenodd" d="M34.1657 11.6945L17.361 26.8187C16.6193 27.4862 16.6193 28.6493 17.361 29.3169L34.1657 44.4411C35.2471 45.4144 36.9703 44.6469 36.9703 43.192V12.9435C36.9703 11.4886 35.2471 10.7212 34.1657 11.6945Z" fill="url(#paint1_linear)" fill-opacity="0.7"/>
<defs>
<linearGradient id="paint0_linear" x1="-7.43152" y1="53.7213" x2="35.7833" y2="1.0933" gradientUnits="userSpaceOnUse">
<stop stop-color="#742DD2"/>
<stop offset="1" stop-color="#FFE2FF"/>
</linearGradient>
<linearGradient id="paint1_linear" x1="-1.86924" y1="57.9999" x2="49.903" y2="-0.618186" gradientUnits="userSpaceOnUse">
<stop offset="0.138312" stop-color="#742DD2"/>
<stop offset="1" stop-color="#FFE2FF"/>
</linearGradient>
</defs>
</svg>
