<svg width="29" height="36" viewBox="0 0 29 36" fill="none" xmlns="http://www.w3.org/2000/svg">
<g filter="url(#filter0_d)">
<path d="M5.35742 26.6286L5.67782 25.1742C6.10461 23.2369 7.17429 21.491 8.70216 20.2258V20.2258C11.8901 17.5858 16.4999 17.4896 19.7787 20.0159V20.0159C21.5853 21.408 22.7855 23.4431 23.1295 25.6977L23.2714 26.6286" stroke="#868686" stroke-width="2" stroke-linecap="round"/>
<path d="M5.35742 26.6286L5.67782 25.1742C6.10461 23.2369 7.17429 21.491 8.70216 20.2258V20.2258C11.8901 17.5858 16.4999 17.4896 19.7787 20.0159V20.0159C21.5853 21.408 22.7855 23.4431 23.1295 25.6977L23.2714 26.6286" stroke="#481380" stroke-width="2" stroke-linecap="round"/>
<circle cx="14.3148" cy="9.50152" r="5.1947" stroke="#868686" stroke-width="2"/>
<circle cx="14.3148" cy="9.50152" r="5.1947" stroke="#481380" stroke-width="2"/>
</g>
<defs>
<filter id="filter0_d" x="-3.09277" y="0.00897217" width="35" height="39" filterUnits="userSpaceOnUse" color-interpolation-filters="sRGB">
<feFlood flood-opacity="0" result="BackgroundImageFix"/>
<feColorMatrix in="SourceAlpha" type="matrix" values="0 0 0 0 0 0 0 0 0 0 0 0 0 0 0 0 0 0 127 0"/>
<feOffset dy="4"/>
<feGaussianBlur stdDeviation="2"/>
<feColorMatrix type="matrix" values="0 0 0 0 0 0 0 0 0 0 0 0 0 0 0 0 0 0 0.25 0"/>
<feBlend mode="normal" in2="BackgroundImageFix" result="effect1_dropShadow"/>
<feBlend mode="normal" in="SourceGraphic" in2="effect1_dropShadow" result="shape"/>
</filter>
</defs>
</svg>
