<svg width="41" height="42" viewBox="0 0 41 42" fill="none" xmlns="http://www.w3.org/2000/svg">
<g opacity="0.8">
<circle cx="20.2629" cy="21.0674" r="20.2629" fill="#481380"/>
<circle cx="20.2629" cy="21.0674" r="20.2629" fill="url(#paint0_linear)" fill-opacity="0.6"/>
</g>
<path fill-rule="evenodd" clip-rule="evenodd" d="M10.999 19.1902L11.0207 19.3075C11.1059 19.6524 11.3696 19.9298 11.717 20.0289L15.3554 21.0673L11.717 22.1057C11.331 22.2158 11.0483 22.546 10.999 22.9443L10.008 30.9443C9.90987 31.7365 10.7337 32.3187 11.4476 31.9617L31.4476 21.9617C32.1847 21.5932 32.1847 20.5414 31.4476 20.1728L11.4476 10.1728C10.7337 9.81588 9.90987 10.3981 10.008 11.1902L10.999 19.1902ZM12.2214 12.7963L28.7634 21.0673L12.2214 29.3373L12.9024 23.8463L19.2748 22.0289L19.3955 21.9869C20.2404 21.6357 20.2002 20.3697 19.2748 20.1057L12.9024 18.2873L12.2214 12.7963Z" fill="#FDFDFD"/>
<defs>
<linearGradient id="paint0_linear" x1="-6.38609" y1="44.8764" x2="50.8567" y2="0.804445" gradientUnits="userSpaceOnUse">
<stop stop-color="#742DD2"/>
<stop offset="1" stop-color="#FFE2FF"/>
</linearGradient>
</defs>
</svg>
