<svg width="25" height="25" viewBox="0 0 25 25" fill="none" xmlns="http://www.w3.org/2000/svg">
<path fill-rule="evenodd" clip-rule="evenodd" d="M12.6551 7.57204L12.3667 7.5867C4.00356 8.04876 1.91211 11.4757 1.91211 21.052C1.91211 22.0081 3.12508 22.419 3.70619 21.6599L3.92104 21.3805C6.8889 17.5399 8.35363 16.4712 12.1693 16.2859L12.6551 16.267L12.6559 20.8697C12.6559 21.7517 13.7146 22.2018 14.3498 21.5898L23.606 12.6703C24.0145 12.2767 24.0141 11.6224 23.6051 11.2293L14.3489 2.33113C13.7135 1.72028 12.6559 2.17061 12.6559 3.05204L12.6551 7.57204ZM14.6551 5.40004L21.4691 11.951L14.6551 18.517L14.6559 15.2541C14.6559 14.7019 14.2082 14.2541 13.6559 14.2541L13.3202 14.2555C8.91825 14.2928 6.79952 15.0891 4.22049 17.8937L3.98411 18.154L3.99677 17.9603C4.41446 11.4461 6.53177 9.6829 13.6759 9.53947C14.2203 9.52854 14.6559 9.08414 14.6559 8.53967L14.6551 5.40004Z" fill="#272727"/>
</svg>
