<svg width="24" height="25" viewBox="0 0 24 25" fill="none" xmlns="http://www.w3.org/2000/svg">
<path fill-rule="evenodd" clip-rule="evenodd" d="M6 5.1115C6.51284 5.1115 6.93551 5.49754 6.99327 5.99488L7 6.1115V12.9608L10 12.9608C10.5128 12.9608 10.9355 13.3469 10.9933 13.8442L11 13.9608V18.6288L13.8472 14.174C14.1233 13.7419 14.6762 13.5936 15.1264 13.8127L15.2283 13.8698C15.6604 14.146 15.8087 14.6989 15.5896 15.1491L15.5325 15.251L10.8427 22.5902C10.326 23.3987 9.10313 23.0798 9.00613 22.1687L9 22.0518V14.9608L6 14.9608C5.48716 14.9608 5.06449 14.5748 5.00673 14.0775L5 13.9608V6.1115C5 5.55922 5.44772 5.1115 6 5.1115ZM19 1.05176C19.7597 1.05176 20.2281 1.85725 19.8901 2.50817L19.8333 2.60452L15.7885 8.70236C15.4833 9.1626 14.8627 9.28822 14.4024 8.98293C13.9751 8.69945 13.8362 8.14412 14.063 7.69773L14.1219 7.59683L17.136 3.05176H8.0704C7.55757 3.05176 7.13489 2.66572 7.07713 2.16838L7.0704 2.05176C7.0704 1.53892 7.45644 1.11625 7.95378 1.05849L8.0704 1.05176H19Z" fill="#FDFDFD"/>
<path fill-rule="evenodd" clip-rule="evenodd" d="M1.37163 1.38701C1.73243 1.02684 2.29968 0.999598 2.69171 1.30496L2.78584 1.38823L22.7083 21.3453C23.0985 21.7361 23.098 22.3693 22.7071 22.7595C22.3463 23.1196 21.7791 23.1469 21.387 22.8415L21.2929 22.7582L1.37041 2.80122C0.98022 2.41036 0.980769 1.77719 1.37163 1.38701Z" fill="#FDFDFD"/>
</svg>
