<svg width="19" height="19" viewBox="0 0 19 19" fill="none" xmlns="http://www.w3.org/2000/svg">
<path fill-rule="evenodd" clip-rule="evenodd" d="M6.6885 5.8892L2.01046 6.56978L1.93146 6.58572C1.42074 6.71861 1.23302 7.37151 1.62524 7.75436L5.01082 11.0591L4.21189 15.7268L4.20285 15.8034C4.16866 16.3323 4.7338 16.7149 5.22022 16.4588L9.40474 14.2554L13.5889 16.4588L13.6589 16.4911C14.1513 16.6875 14.6901 16.2687 14.5973 15.7269L13.798 11.0591L17.1842 7.75436L17.2388 7.695C17.5736 7.28712 17.3414 6.6487 16.799 6.56978L12.1203 5.8892L10.0279 1.64323C9.77318 1.12642 9.0363 1.12641 8.7816 1.6432L6.6885 5.8892ZM9.4043 3.52171L11.0356 6.83095L11.0778 6.90485C11.1861 7.06999 11.3607 7.18251 11.5587 7.21133L15.2077 7.74196L12.5669 10.3201L12.5098 10.3831C12.3865 10.537 12.3337 10.7375 12.3674 10.9345L12.9903 14.5735L9.72861 12.8561L9.65095 12.8211C9.46613 12.7511 9.25861 12.7628 9.08136 12.8561L5.819 14.5729L6.4426 10.9345L6.4518 10.85C6.46113 10.6531 6.38615 10.4597 6.24312 10.3201L3.60155 7.74196L7.25095 7.21133C7.4773 7.17839 7.67293 7.03615 7.77404 6.83098L9.4043 3.52171Z" fill="#FDFDFD"/>
<path fill-rule="evenodd" clip-rule="evenodd" d="M6.6885 5.8892L2.01046 6.56978L1.93146 6.58572C1.42074 6.71861 1.23302 7.37151 1.62524 7.75436L5.01082 11.0591L4.21189 15.7268L4.20285 15.8034C4.16866 16.3323 4.7338 16.7149 5.22022 16.4588L9.40474 14.2554L13.5889 16.4588L13.6589 16.4911C14.1513 16.6875 14.6901 16.2687 14.5973 15.7269L13.798 11.0591L17.1842 7.75436L17.2388 7.695C17.5736 7.28712 17.3414 6.6487 16.799 6.56978L12.1203 5.8892L10.0279 1.64323C9.77318 1.12642 9.0363 1.12641 8.7816 1.6432L6.6885 5.8892Z" fill="#FFE2FF"/>
<path fill-rule="evenodd" clip-rule="evenodd" d="M6.6885 5.8892L2.01046 6.56978L1.93146 6.58572C1.42074 6.71861 1.23302 7.37151 1.62524 7.75436L5.01082 11.0591L4.21189 15.7268L4.20285 15.8034C4.16866 16.3323 4.7338 16.7149 5.22022 16.4588L9.40474 14.2554L13.5889 16.4588L13.6589 16.4911C14.1513 16.6875 14.6901 16.2687 14.5973 15.7269L13.798 11.0591L17.1842 7.75436L17.2388 7.695C17.5736 7.28712 17.3414 6.6487 16.799 6.56978L12.1203 5.8892L10.0279 1.64323C9.77318 1.12642 9.0363 1.12641 8.7816 1.6432L6.6885 5.8892Z" fill="url(#paint0_linear)"/>
<defs>
<linearGradient id="paint0_linear" x1="1.41504" y1="8.89798" x2="17.3944" y2="10.3058" gradientUnits="userSpaceOnUse">
<stop stop-color="#FFE2FF"/>
<stop offset="1" stop-color="#EFB1FF"/>
</linearGradient>
</defs>
</svg>
