<svg width="58" height="58" viewBox="0 0 58 58" fill="none" xmlns="http://www.w3.org/2000/svg">
<path fill-rule="evenodd" clip-rule="evenodd" d="M20.974 7.86694H15.9679C12.7131 7.86694 10.2793 10.9092 10.2793 14.4658V42.2264C10.2793 45.7829 12.7131 48.8252 15.9679 48.8252H20.974C24.2288 48.8252 26.6626 45.7829 26.6626 42.2264V14.4658C26.6626 10.9092 24.2288 7.86694 20.974 7.86694Z" fill="#FDFDFD"/>
<path fill-rule="evenodd" clip-rule="evenodd" d="M20.974 7.86694H15.9679C12.7131 7.86694 10.2793 10.9092 10.2793 14.4658V42.2264C10.2793 45.7829 12.7131 48.8252 15.9679 48.8252H20.974C24.2288 48.8252 26.6626 45.7829 26.6626 42.2264V14.4658C26.6626 10.9092 24.2288 7.86694 20.974 7.86694Z" fill="url(#paint0_linear)" fill-opacity="0.7"/>
<path fill-rule="evenodd" clip-rule="evenodd" d="M41.4525 7.86694H36.4465C33.1916 7.86694 30.7578 10.9092 30.7578 14.4658V42.2264C30.7578 45.7829 33.1916 48.8252 36.4465 48.8252H41.4525C44.7073 48.8252 47.1411 45.7829 47.1411 42.2264V14.4658C47.1411 10.9092 44.7073 7.86694 41.4525 7.86694Z" fill="#FDFDFD"/>
<path fill-rule="evenodd" clip-rule="evenodd" d="M41.4525 7.86694H36.4465C33.1916 7.86694 30.7578 10.9092 30.7578 14.4658V42.2264C30.7578 45.7829 33.1916 48.8252 36.4465 48.8252H41.4525C44.7073 48.8252 47.1411 45.7829 47.1411 42.2264V14.4658C47.1411 10.9092 44.7073 7.86694 41.4525 7.86694Z" fill="url(#paint1_linear)" fill-opacity="0.7"/>
<defs>
<linearGradient id="paint0_linear" x1="6.37779" y1="53.2426" x2="34.3059" y2="-1.10407" gradientUnits="userSpaceOnUse">
<stop stop-color="#742DD2"/>
<stop offset="1" stop-color="#FFE2FF"/>
</linearGradient>
<linearGradient id="paint1_linear" x1="19.2089" y1="57.7715" x2="47.1411" y2="3.42481" gradientUnits="userSpaceOnUse">
<stop stop-color="#742DD2"/>
<stop offset="1" stop-color="#FFE2FF"/>
</linearGradient>
</defs>
</svg>
