<svg width="25" height="25" viewBox="0 0 25 25" fill="none" xmlns="http://www.w3.org/2000/svg">
<path fill-rule="evenodd" clip-rule="evenodd" d="M12.1641 1.052C6.08893 1.052 1.16406 5.97687 1.16406 12.052C1.16406 18.1271 6.08893 23.052 12.1641 23.052C18.2392 23.052 23.1641 18.1271 23.1641 12.052C23.1641 5.97687 18.2392 1.052 12.1641 1.052ZM12.1641 3.052C17.1346 3.052 21.1641 7.08144 21.1641 12.052C21.1641 17.0226 17.1346 21.052 12.1641 21.052C7.1935 21.052 3.16406 17.0226 3.16406 12.052C3.16406 7.08144 7.1935 3.052 12.1641 3.052Z" fill="#FDFDFD"/>
<path fill-rule="evenodd" clip-rule="evenodd" d="M12.1641 6.052C12.6769 6.052 13.0996 6.43804 13.1573 6.93538L13.1641 7.052V11.637L15.8712 14.3449C16.2317 14.7054 16.2594 15.2726 15.9544 15.6649L15.8712 15.7591C15.5107 16.1196 14.9435 16.1473 14.5512 15.8423L14.457 15.7591L11.457 12.7591C11.3007 12.6028 11.2015 12.4001 11.1727 12.1834L11.1641 12.052V7.052C11.1641 6.49972 11.6118 6.052 12.1641 6.052Z" fill="#FDFDFD"/>
</svg>
