<svg width="23" height="23" viewBox="0 0 23 23" fill="none" xmlns="http://www.w3.org/2000/svg">
<g clip-path="url(#clip0)">
<path d="M19.7151 0.310059C19.2614 0.310059 18.8937 0.661834 18.8937 1.09579V3.96598C14.6646 0.0496683 7.91726 0.154174 3.82294 4.1993C1.89338 6.10568 0.816943 8.65659 0.822285 11.31C0.822285 11.744 1.19005 12.0958 1.64373 12.0958C2.09741 12.0958 2.46513 11.744 2.46513 11.31C2.46614 6.53673 6.51233 2.66794 11.5026 2.6689C14.0371 2.66936 16.4547 3.68795 18.1659 5.47611L14.527 6.63659C14.0961 6.77374 13.8629 7.21906 14.0063 7.63128C14.1496 8.04351 14.6152 8.26656 15.0462 8.12941L19.9747 6.558C20.3112 6.45083 20.5377 6.14919 20.5366 5.81002V1.09574C20.5366 0.661834 20.1688 0.310059 19.7151 0.310059Z" fill="#FDFDFD"/>
<path d="M21.3578 10.5244C20.9041 10.5244 20.5363 10.8762 20.5363 11.3101C20.5353 16.0834 16.4891 19.9522 11.4988 19.9513C8.9644 19.9508 6.54675 18.9322 4.83552 17.1441L8.47443 15.9836C8.90539 15.8464 9.13858 15.4011 8.9952 14.9889C8.85182 14.5767 8.38625 14.3536 7.95529 14.4908L3.02672 16.0622C2.69029 16.1694 2.46374 16.471 2.46485 16.8102V21.5244C2.46485 21.9584 2.83261 22.3102 3.28629 22.3102C3.73997 22.3102 4.10774 21.9584 4.10774 21.5244V18.6542C8.33677 22.5705 15.0842 22.4661 19.1785 18.4209C21.108 16.5145 22.1845 13.9636 22.1791 11.3101C22.1792 10.8762 21.8114 10.5244 21.3578 10.5244Z" fill="#FDFDFD"/>
</g>
<defs>
<clipPath id="clip0">
<rect width="23" height="22" fill="white" transform="translate(0 0.310059)"/>
</clipPath>
</defs>
</svg>
