<svg width="16" height="16" viewBox="0 0 16 16" fill="none" xmlns="http://www.w3.org/2000/svg">
<g clip-path="url(#clip0)">
<rect width="16" height="16" fill="white"/>
<path d="M2.35283 13.6472C3.08592 14.3802 3.93988 14.9559 4.89104 15.3582C5.87642 15.775 6.92243 15.9863 8.00006 15.9863C9.07767 15.9863 10.1237 15.775 11.1091 15.3582C12.0602 14.9559 12.9142 14.3802 13.6473 13.6472C14.3804 12.9141 14.9561 12.0601 15.3584 11.1089C15.7751 10.1236 15.9865 9.07752 15.9865 7.99994C15.9865 6.92228 15.7751 5.87627 15.3584 4.89092C14.9561 3.93976 14.3804 3.0858 13.6473 2.35271C12.9142 1.61962 12.0603 1.04394 11.1091 0.641646C10.1237 0.224847 9.07767 0.0135498 8.00006 0.0135498C6.92243 0.0135498 5.87642 0.224875 4.89104 0.641646C3.93988 1.04394 3.08592 1.61965 2.35283 2.35271C1.61974 3.08578 1.04406 3.93976 0.641741 4.89089C0.224997 5.87627 0.0136719 6.92228 0.0136719 7.99994C0.0136719 9.07755 0.224997 10.1236 0.641768 11.1089C1.04406 12.0601 1.61977 12.9141 2.35283 13.6472ZM8.00006 1.17944C11.7669 1.17944 14.8205 4.23308 14.8205 7.99994C14.8205 11.7668 11.7669 14.8204 8.00006 14.8204C4.2332 14.8204 1.17956 11.7668 1.17956 7.99994C1.17956 4.23308 4.2332 1.17944 8.00006 1.17944Z" fill="white"/>
<path d="M2.35283 13.6472C3.08592 14.3802 3.93988 14.9559 4.89104 15.3582C5.87642 15.775 6.92243 15.9863 8.00006 15.9863C9.07767 15.9863 10.1237 15.775 11.1091 15.3582C12.0602 14.9559 12.9142 14.3802 13.6473 13.6472C14.3804 12.9141 14.9561 12.0601 15.3584 11.1089C15.7751 10.1236 15.9865 9.07752 15.9865 7.99994C15.9865 6.92228 15.7751 5.87627 15.3584 4.89092C14.9561 3.93976 14.3804 3.0858 13.6473 2.35271C12.9142 1.61962 12.0603 1.04394 11.1091 0.641646C10.1237 0.224847 9.07767 0.0135498 8.00006 0.0135498C6.92243 0.0135498 5.87642 0.224875 4.89104 0.641646C3.93988 1.04394 3.08592 1.61965 2.35283 2.35271C1.61974 3.08578 1.04406 3.93976 0.641741 4.89089C0.224997 5.87627 0.0136719 6.92228 0.0136719 7.99994C0.0136719 9.07755 0.224997 10.1236 0.641768 11.1089C1.04406 12.0601 1.61977 12.9141 2.35283 13.6472ZM8.00006 1.17944C11.7669 1.17944 14.8205 4.23308 14.8205 7.99994C14.8205 11.7668 11.7669 14.8204 8.00006 14.8204C4.2332 14.8204 1.17956 11.7668 1.17956 7.99994C1.17956 4.23308 4.2332 1.17944 8.00006 1.17944Z" fill="url(#paint0_linear)"/>
<path d="M8 16.0009C6.92046 16.0009 5.87268 15.7892 4.88567 15.3718C3.93287 14.9688 3.07745 14.3921 2.34316 13.6578C1.60882 12.9234 1.03216 12.068 0.629185 11.1152C0.211679 10.1282 0 9.08038 0 8.00098C0 6.92155 0.211679 5.87371 0.629158 4.88662C1.03213 3.93388 1.60882 3.07845 2.34313 2.34411C3.07745 1.60977 3.9329 1.03311 4.88565 0.630134C5.87274 0.212655 6.92054 0.000976562 7.99997 0.000976562C9.07949 0.000976562 10.1273 0.212655 11.1143 0.630161C12.067 1.03313 12.9225 1.60982 13.6568 2.34414C14.3912 3.07854 14.9679 3.93396 15.3708 4.88665C15.7883 5.87374 16 6.92155 16 8.00098C16 9.08038 15.7883 10.1282 15.3708 11.1153C14.9679 12.068 14.3912 12.9234 13.6568 13.6578C12.9225 14.3921 12.0671 14.9688 11.1143 15.3718C10.1273 15.7892 9.07948 16.0009 8 16.0009ZM8 0.0281916C6.92422 0.0281916 5.88 0.239136 4.89629 0.655199C3.94678 1.05681 3.09424 1.63151 2.3624 2.36335C1.63054 3.09522 1.05584 3.94773 0.654223 4.89721C0.238159 5.88095 0.0272151 6.92519 0.0272151 8.00098C0.0272151 9.07671 0.238159 10.121 0.654223 11.1047C1.05584 12.0542 1.63054 12.9067 2.3624 13.6386C3.09422 14.3704 3.94673 14.9451 4.89629 15.3467C5.87989 15.7628 6.92413 15.9737 8 15.9737C9.07586 15.9737 10.1201 15.7628 11.1037 15.3467C12.0532 14.9451 12.9058 14.3704 13.6376 13.6386C14.3695 12.9066 14.9442 12.0541 15.3457 11.1047C15.7618 10.121 15.9728 9.07673 15.9728 8.00098C15.9728 6.92519 15.7618 5.88095 15.3457 4.89726C14.9442 3.94781 14.3695 3.0953 13.6376 2.36338C12.9057 1.63154 12.0532 1.05684 11.1037 0.655226C10.1201 0.239136 9.07581 0.0281916 8 0.0281916ZM8 14.835C6.17455 14.835 4.45834 14.1242 3.16756 12.8334C1.87678 11.5426 1.16589 9.82643 1.16589 8.00098C1.16589 6.17553 1.87675 4.45932 3.16756 3.16854C4.45834 1.87775 6.17455 1.16687 8 1.16687C9.82545 1.16687 11.5416 1.87775 12.8324 3.16854C14.1232 4.45935 14.8341 6.17553 14.8341 8.00098C14.8341 9.82643 14.1232 11.5426 12.8324 12.8334C11.5416 14.1242 9.82542 14.835 8 14.835ZM8 1.19408C6.18182 1.19408 4.47247 1.90214 3.1868 3.18778C1.90116 4.47344 1.19311 6.18279 1.19311 8.00098C1.19311 9.81916 1.90116 11.5285 3.1868 12.8141C4.47244 14.0998 6.18182 14.8078 8 14.8078C9.81818 14.8078 11.5275 14.0998 12.8132 12.8141C14.0988 11.5285 14.8069 9.81913 14.8069 8.00098C14.8069 6.18279 14.0988 4.47342 12.8132 3.18778C11.5275 1.90211 9.81818 1.19408 8 1.19408Z" fill="white"/>
<path d="M8 16.0009C6.92046 16.0009 5.87268 15.7892 4.88567 15.3718C3.93287 14.9688 3.07745 14.3921 2.34316 13.6578C1.60882 12.9234 1.03216 12.068 0.629185 11.1152C0.211679 10.1282 0 9.08038 0 8.00098C0 6.92155 0.211679 5.87371 0.629158 4.88662C1.03213 3.93388 1.60882 3.07845 2.34313 2.34411C3.07745 1.60977 3.9329 1.03311 4.88565 0.630134C5.87274 0.212655 6.92054 0.000976562 7.99997 0.000976562C9.07949 0.000976562 10.1273 0.212655 11.1143 0.630161C12.067 1.03313 12.9225 1.60982 13.6568 2.34414C14.3912 3.07854 14.9679 3.93396 15.3708 4.88665C15.7883 5.87374 16 6.92155 16 8.00098C16 9.08038 15.7883 10.1282 15.3708 11.1153C14.9679 12.068 14.3912 12.9234 13.6568 13.6578C12.9225 14.3921 12.0671 14.9688 11.1143 15.3718C10.1273 15.7892 9.07948 16.0009 8 16.0009ZM8 0.0281916C6.92422 0.0281916 5.88 0.239136 4.89629 0.655199C3.94678 1.05681 3.09424 1.63151 2.3624 2.36335C1.63054 3.09522 1.05584 3.94773 0.654223 4.89721C0.238159 5.88095 0.0272151 6.92519 0.0272151 8.00098C0.0272151 9.07671 0.238159 10.121 0.654223 11.1047C1.05584 12.0542 1.63054 12.9067 2.3624 13.6386C3.09422 14.3704 3.94673 14.9451 4.89629 15.3467C5.87989 15.7628 6.92413 15.9737 8 15.9737C9.07586 15.9737 10.1201 15.7628 11.1037 15.3467C12.0532 14.9451 12.9058 14.3704 13.6376 13.6386C14.3695 12.9066 14.9442 12.0541 15.3457 11.1047C15.7618 10.121 15.9728 9.07673 15.9728 8.00098C15.9728 6.92519 15.7618 5.88095 15.3457 4.89726C14.9442 3.94781 14.3695 3.0953 13.6376 2.36338C12.9057 1.63154 12.0532 1.05684 11.1037 0.655226C10.1201 0.239136 9.07581 0.0281916 8 0.0281916ZM8 14.835C6.17455 14.835 4.45834 14.1242 3.16756 12.8334C1.87678 11.5426 1.16589 9.82643 1.16589 8.00098C1.16589 6.17553 1.87675 4.45932 3.16756 3.16854C4.45834 1.87775 6.17455 1.16687 8 1.16687C9.82545 1.16687 11.5416 1.87775 12.8324 3.16854C14.1232 4.45935 14.8341 6.17553 14.8341 8.00098C14.8341 9.82643 14.1232 11.5426 12.8324 12.8334C11.5416 14.1242 9.82542 14.835 8 14.835ZM8 1.19408C6.18182 1.19408 4.47247 1.90214 3.1868 3.18778C1.90116 4.47344 1.19311 6.18279 1.19311 8.00098C1.19311 9.81916 1.90116 11.5285 3.1868 12.8141C4.47244 14.0998 6.18182 14.8078 8 14.8078C9.81818 14.8078 11.5275 14.0998 12.8132 12.8141C14.0988 11.5285 14.8069 9.81913 14.8069 8.00098C14.8069 6.18279 14.0988 4.47342 12.8132 3.18778C11.5275 1.90211 9.81818 1.19408 8 1.19408Z" fill="url(#paint1_linear)"/>
<path d="M6.23326 10.9076C6.34258 11.017 6.49085 11.0783 6.64546 11.0783C6.80009 11.0783 6.94833 11.0169 7.05766 10.9076L12.0485 5.91678C12.2762 5.68912 12.2762 5.32004 12.0485 5.09238C11.8209 4.86473 11.4517 4.8647 11.2241 5.09238L6.64546 9.67104L4.77834 7.8039C4.55069 7.57621 4.1816 7.57621 3.95394 7.8039C3.72629 8.03155 3.72629 8.40064 3.95394 8.62829L6.23326 10.9076Z" fill="white"/>
<path d="M6.23326 10.9076C6.34258 11.017 6.49085 11.0783 6.64546 11.0783C6.80009 11.0783 6.94833 11.0169 7.05766 10.9076L12.0485 5.91678C12.2762 5.68912 12.2762 5.32004 12.0485 5.09238C11.8209 4.86473 11.4517 4.8647 11.2241 5.09238L6.64546 9.67104L4.77834 7.8039C4.55069 7.57621 4.1816 7.57621 3.95394 7.8039C3.72629 8.03155 3.72629 8.40064 3.95394 8.62829L6.23326 10.9076Z" fill="url(#paint2_linear)"/>
<path d="M6.64511 11.092C6.48577 11.092 6.33595 11.0299 6.22328 10.9173L3.94397 8.63793C3.71139 8.40532 3.71139 8.02687 3.94397 7.79426C4.05664 7.68157 4.20646 7.61952 4.3658 7.61952C4.52514 7.61952 4.67494 7.68157 4.78763 7.79426L6.64514 9.65178L11.2141 5.08274C11.3268 4.97004 11.4766 4.90802 11.636 4.90802C11.7953 4.90802 11.9451 4.97007 12.0578 5.08274C12.1705 5.19541 12.2326 5.34523 12.2326 5.50458C12.2326 5.66392 12.1705 5.81371 12.0578 5.92641L7.06695 10.9173C6.9543 11.0299 6.80449 11.092 6.64511 11.092ZM4.3658 7.64676C4.21372 7.64676 4.07076 7.70598 3.96323 7.81353C3.74127 8.03553 3.74127 8.3967 3.96323 8.61869L6.24255 10.898C6.35008 11.0055 6.49304 11.0648 6.64511 11.0648C6.79722 11.0648 6.94018 11.0055 7.04771 10.898L12.0385 5.90717C12.1461 5.79964 12.2053 5.65665 12.2053 5.5046C12.2053 5.35255 12.1461 5.20954 12.0385 5.10201C11.931 4.99446 11.788 4.93526 11.6359 4.93526C11.4839 4.93526 11.3409 4.99448 11.2334 5.10201L6.64511 9.69029L4.76836 7.81353C4.66084 7.70598 4.51788 7.64676 4.3658 7.64676Z" fill="white"/>
<path d="M6.64511 11.092C6.48577 11.092 6.33595 11.0299 6.22328 10.9173L3.94397 8.63793C3.71139 8.40532 3.71139 8.02687 3.94397 7.79426C4.05664 7.68157 4.20646 7.61952 4.3658 7.61952C4.52514 7.61952 4.67494 7.68157 4.78763 7.79426L6.64514 9.65178L11.2141 5.08274C11.3268 4.97004 11.4766 4.90802 11.636 4.90802C11.7953 4.90802 11.9451 4.97007 12.0578 5.08274C12.1705 5.19541 12.2326 5.34523 12.2326 5.50458C12.2326 5.66392 12.1705 5.81371 12.0578 5.92641L7.06695 10.9173C6.9543 11.0299 6.80449 11.092 6.64511 11.092ZM4.3658 7.64676C4.21372 7.64676 4.07076 7.70598 3.96323 7.81353C3.74127 8.03553 3.74127 8.3967 3.96323 8.61869L6.24255 10.898C6.35008 11.0055 6.49304 11.0648 6.64511 11.0648C6.79722 11.0648 6.94018 11.0055 7.04771 10.898L12.0385 5.90717C12.1461 5.79964 12.2053 5.65665 12.2053 5.5046C12.2053 5.35255 12.1461 5.20954 12.0385 5.10201C11.931 4.99446 11.788 4.93526 11.6359 4.93526C11.4839 4.93526 11.3409 4.99448 11.2334 5.10201L6.64511 9.69029L4.76836 7.81353C4.66084 7.70598 4.51788 7.64676 4.3658 7.64676Z" fill="url(#paint3_linear)"/>
</g>
<defs>
<linearGradient id="paint0_linear" x1="0.0136718" y1="13.8031" x2="15.9865" y2="2.9651" gradientUnits="userSpaceOnUse">
<stop stop-color="#742DD2"/>
<stop offset="1" stop-color="#FFE2FF"/>
</linearGradient>
<linearGradient id="paint1_linear" x1="8" y1="0.000976562" x2="8" y2="16.0009" gradientUnits="userSpaceOnUse">
<stop stop-color="#742DD2"/>
<stop offset="1" stop-color="#FFE2FF"/>
</linearGradient>
<linearGradient id="paint2_linear" x1="3.7832" y1="11.0783" x2="14.2981" y2="4.92163" gradientUnits="userSpaceOnUse">
<stop stop-color="#742DD2"/>
<stop offset="1" stop-color="#FFE2FF"/>
</linearGradient>
<linearGradient id="paint3_linear" x1="3.76953" y1="11.092" x2="14.0237" y2="6.39504" gradientUnits="userSpaceOnUse">
<stop stop-color="#742DD2"/>
<stop offset="1" stop-color="#FFE2FF"/>
</linearGradient>
<clipPath id="clip0">
<rect width="16" height="16" fill="white"/>
</clipPath>
</defs>
</svg>
