<svg width="37" height="34" viewBox="0 0 37 34" fill="none" xmlns="http://www.w3.org/2000/svg">
<path fill-rule="evenodd" clip-rule="evenodd" d="M16.7358 1.93502V31.9077C16.7358 33.3494 18.4434 34.1098 19.5149 33.1454L36.1664 18.1591C36.9014 17.4976 36.9014 16.3451 36.1664 15.6837L19.5149 0.697324C18.4434 -0.267082 16.7358 0.493381 16.7358 1.93502Z" fill="#FDFDFD"/>
<path fill-rule="evenodd" clip-rule="evenodd" d="M16.7358 1.93502V31.9077C16.7358 33.3494 18.4434 34.1098 19.5149 33.1454L36.1664 18.1591C36.9014 17.4976 36.9014 16.3451 36.1664 15.6837L19.5149 0.697324C18.4434 -0.267082 16.7358 0.493381 16.7358 1.93502Z" fill="url(#paint0_linear)" fill-opacity="0.7"/>
<path fill-rule="evenodd" clip-rule="evenodd" d="M0.0844727 1.93502V31.9077C0.0844727 33.3494 1.79199 34.1098 2.86355 33.1454L19.5151 18.1591C20.25 17.4976 20.25 16.3451 19.5151 15.6837L2.86355 0.697324C1.79199 -0.267082 0.0844727 0.493381 0.0844727 1.93502Z" fill="#FDFDFD"/>
<path fill-rule="evenodd" clip-rule="evenodd" d="M0.0844727 1.93502V31.9077C0.0844727 33.3494 1.79199 34.1098 2.86355 33.1454L19.5151 18.1591C20.25 17.4976 20.25 16.3451 19.5151 15.6837L2.86355 0.697324C1.79199 -0.267082 0.0844727 0.493381 0.0844727 1.93502Z" fill="url(#paint1_linear)" fill-opacity="0.7"/>
<defs>
<linearGradient id="paint0_linear" x1="10.2455" y1="33.5762" x2="36.7177" y2="5.76592" gradientUnits="userSpaceOnUse">
<stop stop-color="#742DD2"/>
<stop offset="1" stop-color="#FFE2FF"/>
</linearGradient>
<linearGradient id="paint1_linear" x1="-13.9087" y1="41.2422" x2="20.0663" y2="0.266603" gradientUnits="userSpaceOnUse">
<stop stop-color="#742DD2"/>
<stop offset="1" stop-color="#FFE2FF"/>
</linearGradient>
</defs>
</svg>
