<svg width="37" height="42" viewBox="0 0 37 42" fill="none" xmlns="http://www.w3.org/2000/svg">
<path fill-rule="evenodd" clip-rule="evenodd" d="M0.820533 2.63417C0.534751 3.15991 0.385254 3.74955 0.385254 4.34837V37.6523C0.385254 39.6105 1.95575 41.2156 3.91534 41.2156C4.52211 41.2156 5.11812 41.0578 5.6461 40.758L34.9734 24.106C36.6644 23.1459 37.2659 20.9942 36.3375 19.2861C36.021 18.7039 35.5489 18.2214 34.9734 17.8946L5.6461 1.24268C3.92952 0.268011 1.7628 0.900713 0.820533 2.63417Z" fill="#FDFDFD"/>
<path fill-rule="evenodd" clip-rule="evenodd" d="M0.820533 2.63417C0.534751 3.15991 0.385254 3.74955 0.385254 4.34837V37.6523C0.385254 39.6105 1.95575 41.2156 3.91534 41.2156C4.52211 41.2156 5.11812 41.0578 5.6461 40.758L34.9734 24.106C36.6644 23.1459 37.2659 20.9942 36.3375 19.2861C36.021 18.7039 35.5489 18.2214 34.9734 17.8946L5.6461 1.24268C3.92952 0.268011 1.7628 0.900713 0.820533 2.63417Z" fill="url(#paint0_linear)" fill-opacity="0.7"/>
<defs>
<linearGradient id="paint0_linear" x1="-14.1695" y1="49.7715" x2="36.7732" y2="8.25666" gradientUnits="userSpaceOnUse">
<stop stop-color="#742DD2"/>
<stop offset="1" stop-color="#FFE2FF"/>
</linearGradient>
</defs>
</svg>
