<svg width="24" height="25" viewBox="0 0 24 25" fill="none" xmlns="http://www.w3.org/2000/svg">
<path fill-rule="evenodd" clip-rule="evenodd" d="M19 1.05176H6C5.44772 1.05176 5 1.49947 5 2.05176V13.9608L5.00673 14.0775C5.06449 14.5748 5.48716 14.9608 6 14.9608L9 14.9608V22.0518C9 23.0512 10.3045 23.4324 10.8427 22.5902L17.8427 11.6357L17.8973 11.5393C18.2218 10.8889 17.7523 10.0972 17 10.0972L14.863 10.0968L19.8333 2.60452C20.2742 1.93982 19.7976 1.05176 19 1.05176ZM17.136 3.05176L12.1667 10.5444L12.1099 10.6408C11.7719 11.2917 12.2403 12.0972 13 12.0972L15.174 12.0968L11 18.6288V13.9608L10.9933 13.8442C10.9355 13.3469 10.5128 12.9608 10 12.9608L7 12.9608V3.05176H17.136Z" fill="#FDFDFD"/>
</svg>
