<svg width="25" height="25" viewBox="0 0 25 25" fill="none" xmlns="http://www.w3.org/2000/svg">
<path fill-rule="evenodd" clip-rule="evenodd" d="M12.1641 1.05176C6.08893 1.05176 1.16406 5.97663 1.16406 12.0518C1.16406 18.1269 6.08893 23.0518 12.1641 23.0518C18.2392 23.0518 23.1641 18.1269 23.1641 12.0518C23.1641 5.97663 18.2392 1.05176 12.1641 1.05176ZM12.1641 3.05176C17.1346 3.05176 21.1641 7.08119 21.1641 12.0518C21.1641 17.0223 17.1346 21.0518 12.1641 21.0518C7.1935 21.0518 3.16406 17.0223 3.16406 12.0518C3.16406 7.08119 7.1935 3.05176 12.1641 3.05176Z" fill="#FDFDFD"/>
<path fill-rule="evenodd" clip-rule="evenodd" d="M12.1641 6.05176C12.6769 6.05176 13.0996 6.4378 13.1573 6.93514L13.1641 7.05176V11.6368L15.8712 14.3447C16.2317 14.7051 16.2594 15.2724 15.9544 15.6647L15.8712 15.7589C15.5107 16.1193 14.9435 16.1471 14.5512 15.8421L14.457 15.7589L11.457 12.7589C11.3007 12.6026 11.2015 12.3999 11.1727 12.1832L11.1641 12.0518V7.05176C11.1641 6.49947 11.6118 6.05176 12.1641 6.05176Z" fill="#FDFDFD"/>
</svg>
