<svg width="23" height="23" viewBox="0 0 23 23" fill="none" xmlns="http://www.w3.org/2000/svg">
<g clip-path="url(#clip0)">
<path d="M19.7141 0.310059C19.2605 0.310059 18.8927 0.661834 18.8927 1.09579V3.96598C14.6637 0.0496683 7.91628 0.154174 3.82196 4.1993C1.89241 6.10568 0.815966 8.65659 0.821309 11.31C0.821309 11.744 1.18907 12.0958 1.64275 12.0958C2.09643 12.0958 2.46415 11.744 2.46415 11.31C2.46516 6.53673 6.51135 2.66794 11.5017 2.6689C14.0361 2.66936 16.4537 3.68795 18.165 5.47611L14.526 6.63659C14.0951 6.77374 13.8619 7.21906 14.0053 7.63128C14.1487 8.04351 14.6142 8.26656 15.0452 8.12941L19.9738 6.558C20.3102 6.45083 20.5367 6.14919 20.5356 5.81002V1.09574C20.5356 0.661834 20.1678 0.310059 19.7141 0.310059Z" fill="#FDFDFD"/>
<path d="M21.3573 10.5244C20.9036 10.5244 20.5358 10.8762 20.5358 11.3101C20.5348 16.0834 16.4886 19.9522 11.4983 19.9513C8.96391 19.9508 6.54626 18.9322 4.83503 17.1441L8.47394 15.9836C8.9049 15.8464 9.13809 15.4011 8.99471 14.9889C8.85133 14.5767 8.38576 14.3536 7.9548 14.4908L3.02624 16.0622C2.6898 16.1694 2.46325 16.471 2.46436 16.8102V21.5244C2.46436 21.9584 2.83212 22.3102 3.2858 22.3102C3.73948 22.3102 4.10725 21.9584 4.10725 21.5244V18.6542C8.33629 22.5705 15.0837 22.4661 19.178 18.4209C21.1075 16.5145 22.184 13.9636 22.1786 11.3101C22.1787 10.8762 21.811 10.5244 21.3573 10.5244Z" fill="#FDFDFD"/>
</g>
<defs>
<clipPath id="clip0">
<rect width="23" height="22" fill="white" transform="translate(0 0.310059)"/>
</clipPath>
</defs>
</svg>
